<?xml version="1.0" encoding="utf-8" standalone="no"?>
<!DOCTYPE svg PUBLIC "-//W3C//DTD SVG 1.1//EN"
  "http://www.w3.org/Graphics/SVG/1.1/DTD/svg11.dtd">
<svg xmlns:xlink="http://www.w3.org/1999/xlink" width="460.8pt" height="345.6pt" viewBox="0 0 460.8 345.6" xmlns="http://www.w3.org/2000/svg" version="1.1">
 <metadata>
  <rdf:RDF xmlns:dc="http://purl.org/dc/elements/1.1/" xmlns:cc="http://creativecommons.org/ns#" xmlns:rdf="http://www.w3.org/1999/02/22-rdf-syntax-ns#">
   <cc:Work>
    <dc:type rdf:resource="http://purl.org/dc/dcmitype/StillImage"/>
    <dc:date>2023-10-19T12:18:00.321811</dc:date>
    <dc:format>image/svg+xml</dc:format>
    <dc:creator>
     <cc:Agent>
      <dc:title>Matplotlib v3.5.1, https://matplotlib.org/</dc:title>
     </cc:Agent>
    </dc:creator>
   </cc:Work>
  </rdf:RDF>
 </metadata>
 <defs>
  <style type="text/css">*{stroke-linejoin: round; stroke-linecap: butt}</style>
 </defs>
 <g id="figure_1">
  <g id="patch_1">
   <path d="M 0 345.6 
L 460.8 345.6 
L 460.8 0 
L 0 0 
z
" style="fill: #ffffff"/>
  </g>
  <g id="axes_1">
   <g id="patch_2">
    <path d="M 57.6 307.584 
L 414.72 307.584 
L 414.72 41.472 
L 57.6 41.472 
z
" style="fill: #ffffff"/>
   </g>
   <g id="matplotlib.axis_1">
    <g id="xtick_1">
     <g id="line2d_1">
      <defs>
       <path id="m0aa53676bb" d="M 0 0 
L 0 3.5 
" style="stroke: #000000; stroke-width: 0.8"/>
      </defs>
      <g>
       <use xlink:href="#m0aa53676bb" x="73.832727" y="307.584" style="stroke: #000000; stroke-width: 0.8"/>
      </g>
     </g>
     <g id="text_1">
      <!-- 0 -->
      <g transform="translate(70.832727 322.779625)scale(0.12 -0.12)">
       <defs>
        <path id="STIXGeneral-Regular-30" d="M 3046 2112 
Q 3046 1683 2963 1302 
Q 2880 922 2717 602 
Q 2554 282 2266 96 
Q 1978 -90 1600 -90 
Q 1210 -90 915 108 
Q 621 307 461 640 
Q 301 973 227 1350 
Q 154 1728 154 2150 
Q 154 2746 301 3222 
Q 448 3699 790 4012 
Q 1133 4326 1626 4326 
Q 2253 4326 2649 3712 
Q 3046 3098 3046 2112 
z
M 2432 2080 
Q 2432 3091 2217 3625 
Q 2003 4160 1587 4160 
Q 1190 4160 979 3622 
Q 768 3085 768 2106 
Q 768 1120 979 598 
Q 1190 77 1600 77 
Q 2003 77 2217 598 
Q 2432 1120 2432 2080 
z
" transform="scale(0.015625)"/>
       </defs>
       <use xlink:href="#STIXGeneral-Regular-30"/>
      </g>
     </g>
    </g>
    <g id="xtick_2">
     <g id="line2d_2">
      <g>
       <use xlink:href="#m0aa53676bb" x="114.618474" y="307.584" style="stroke: #000000; stroke-width: 0.8"/>
      </g>
     </g>
     <g id="text_2">
      <!-- 25 -->
      <g transform="translate(108.618474 322.779625)scale(0.12 -0.12)">
       <defs>
        <path id="STIXGeneral-Regular-32" d="M 3034 877 
L 2688 0 
L 186 0 
L 186 77 
L 1325 1286 
Q 1773 1754 1965 2144 
Q 2157 2534 2157 2950 
Q 2157 3379 1920 3616 
Q 1683 3853 1267 3853 
Q 922 3853 720 3673 
Q 518 3494 326 3021 
L 192 3053 
Q 301 3648 630 3987 
Q 960 4326 1523 4326 
Q 2054 4326 2380 4006 
Q 2707 3686 2707 3200 
Q 2707 2477 1888 1613 
L 832 486 
L 2330 486 
Q 2541 486 2665 569 
Q 2790 653 2944 915 
L 3034 877 
z
" transform="scale(0.015625)"/>
        <path id="STIXGeneral-Regular-35" d="M 2803 4358 
L 2573 3814 
Q 2534 3731 2400 3731 
L 1158 3731 
L 902 3187 
Q 1606 3053 1920 2896 
Q 2234 2739 2502 2368 
Q 2726 2061 2726 1555 
Q 2726 1094 2576 780 
Q 2426 467 2099 224 
Q 1664 -90 1011 -90 
Q 646 -90 422 19 
Q 198 128 198 307 
Q 198 550 486 550 
Q 717 550 960 352 
Q 1210 147 1414 147 
Q 1747 147 2012 480 
Q 2278 813 2278 1229 
Q 2278 1843 1850 2189 
Q 1293 2637 486 2637 
Q 410 2637 410 2688 
L 416 2720 
L 1114 4237 
L 2438 4237 
Q 2547 4237 2608 4269 
Q 2669 4301 2746 4403 
L 2803 4358 
z
" transform="scale(0.015625)"/>
       </defs>
       <use xlink:href="#STIXGeneral-Regular-32"/>
       <use xlink:href="#STIXGeneral-Regular-35" x="49.999985"/>
      </g>
     </g>
    </g>
    <g id="xtick_3">
     <g id="line2d_3">
      <g>
       <use xlink:href="#m0aa53676bb" x="155.404221" y="307.584" style="stroke: #000000; stroke-width: 0.8"/>
      </g>
     </g>
     <g id="text_3">
      <!-- 50 -->
      <g transform="translate(149.404221 322.779625)scale(0.12 -0.12)">
       <use xlink:href="#STIXGeneral-Regular-35"/>
       <use xlink:href="#STIXGeneral-Regular-30" x="49.999985"/>
      </g>
     </g>
    </g>
    <g id="xtick_4">
     <g id="line2d_4">
      <g>
       <use xlink:href="#m0aa53676bb" x="196.189968" y="307.584" style="stroke: #000000; stroke-width: 0.8"/>
      </g>
     </g>
     <g id="text_4">
      <!-- 75 -->
      <g transform="translate(190.189968 322.779625)scale(0.12 -0.12)">
       <defs>
        <path id="STIXGeneral-Regular-37" d="M 2874 4134 
L 1517 -51 
L 1101 -51 
L 2368 3763 
L 992 3763 
Q 717 3763 582 3667 
Q 448 3571 243 3238 
L 128 3296 
L 512 4237 
L 2874 4237 
L 2874 4134 
z
" transform="scale(0.015625)"/>
       </defs>
       <use xlink:href="#STIXGeneral-Regular-37"/>
       <use xlink:href="#STIXGeneral-Regular-35" x="49.999985"/>
      </g>
     </g>
    </g>
    <g id="xtick_5">
     <g id="line2d_5">
      <g>
       <use xlink:href="#m0aa53676bb" x="236.975715" y="307.584" style="stroke: #000000; stroke-width: 0.8"/>
      </g>
     </g>
     <g id="text_5">
      <!-- 100 -->
      <g transform="translate(227.975715 322.779625)scale(0.12 -0.12)">
       <defs>
        <path id="STIXGeneral-Regular-31" d="M 2522 0 
L 755 0 
L 755 96 
Q 1107 115 1235 227 
Q 1363 339 1363 608 
L 1363 3482 
Q 1363 3795 1171 3795 
Q 1082 3795 883 3718 
L 710 3654 
L 710 3744 
L 1856 4326 
L 1914 4307 
L 1914 486 
Q 1914 275 2042 185 
Q 2170 96 2522 96 
L 2522 0 
z
" transform="scale(0.015625)"/>
       </defs>
       <use xlink:href="#STIXGeneral-Regular-31"/>
       <use xlink:href="#STIXGeneral-Regular-30" x="49.999985"/>
       <use xlink:href="#STIXGeneral-Regular-30" x="99.999969"/>
      </g>
     </g>
    </g>
    <g id="xtick_6">
     <g id="line2d_6">
      <g>
       <use xlink:href="#m0aa53676bb" x="277.761462" y="307.584" style="stroke: #000000; stroke-width: 0.8"/>
      </g>
     </g>
     <g id="text_6">
      <!-- 125 -->
      <g transform="translate(268.761462 322.779625)scale(0.12 -0.12)">
       <use xlink:href="#STIXGeneral-Regular-31"/>
       <use xlink:href="#STIXGeneral-Regular-32" x="49.999985"/>
       <use xlink:href="#STIXGeneral-Regular-35" x="99.999969"/>
      </g>
     </g>
    </g>
    <g id="xtick_7">
     <g id="line2d_7">
      <g>
       <use xlink:href="#m0aa53676bb" x="318.547209" y="307.584" style="stroke: #000000; stroke-width: 0.8"/>
      </g>
     </g>
     <g id="text_7">
      <!-- 150 -->
      <g transform="translate(309.547209 322.779625)scale(0.12 -0.12)">
       <use xlink:href="#STIXGeneral-Regular-31"/>
       <use xlink:href="#STIXGeneral-Regular-35" x="49.999985"/>
       <use xlink:href="#STIXGeneral-Regular-30" x="99.999969"/>
      </g>
     </g>
    </g>
    <g id="xtick_8">
     <g id="line2d_8">
      <g>
       <use xlink:href="#m0aa53676bb" x="359.332956" y="307.584" style="stroke: #000000; stroke-width: 0.8"/>
      </g>
     </g>
     <g id="text_8">
      <!-- 175 -->
      <g transform="translate(350.332956 322.779625)scale(0.12 -0.12)">
       <use xlink:href="#STIXGeneral-Regular-31"/>
       <use xlink:href="#STIXGeneral-Regular-37" x="49.999985"/>
       <use xlink:href="#STIXGeneral-Regular-35" x="99.999969"/>
      </g>
     </g>
    </g>
    <g id="xtick_9">
     <g id="line2d_9">
      <g>
       <use xlink:href="#m0aa53676bb" x="400.118703" y="307.584" style="stroke: #000000; stroke-width: 0.8"/>
      </g>
     </g>
     <g id="text_9">
      <!-- 200 -->
      <g transform="translate(391.118703 322.779625)scale(0.12 -0.12)">
       <use xlink:href="#STIXGeneral-Regular-32"/>
       <use xlink:href="#STIXGeneral-Regular-30" x="49.999985"/>
       <use xlink:href="#STIXGeneral-Regular-30" x="99.999969"/>
      </g>
     </g>
    </g>
   </g>
   <g id="matplotlib.axis_2">
    <g id="ytick_1">
     <g id="line2d_10">
      <defs>
       <path id="mc0c4108166" d="M 0 0 
L -3.5 0 
" style="stroke: #000000; stroke-width: 0.8"/>
      </defs>
      <g>
       <use xlink:href="#mc0c4108166" x="57.6" y="269.700617" style="stroke: #000000; stroke-width: 0.8"/>
      </g>
     </g>
     <g id="text_10">
      <!-- 2 -->
      <g transform="translate(44.6 273.798429)scale(0.12 -0.12)">
       <use xlink:href="#STIXGeneral-Regular-32"/>
      </g>
     </g>
    </g>
    <g id="ytick_2">
     <g id="line2d_11">
      <g>
       <use xlink:href="#mc0c4108166" x="57.6" y="210.665469" style="stroke: #000000; stroke-width: 0.8"/>
      </g>
     </g>
     <g id="text_11">
      <!-- 3 -->
      <g transform="translate(44.6 214.763282)scale(0.12 -0.12)">
       <defs>
        <path id="STIXGeneral-Regular-33" d="M 390 3264 
L 288 3290 
Q 435 3770 748 4048 
Q 1062 4326 1542 4326 
Q 1990 4326 2265 4083 
Q 2541 3840 2541 3450 
Q 2541 2925 1946 2566 
Q 2298 2413 2477 2227 
Q 2758 1914 2758 1402 
Q 2758 890 2464 506 
Q 2246 211 1840 60 
Q 1434 -90 979 -90 
Q 262 -90 262 275 
Q 262 378 339 442 
Q 416 506 525 506 
Q 685 506 915 339 
Q 1197 141 1466 141 
Q 1818 141 2058 425 
Q 2298 710 2298 1120 
Q 2298 1856 1632 2048 
Q 1434 2112 979 2112 
L 979 2202 
Q 1338 2323 1517 2432 
Q 2035 2726 2035 3290 
Q 2035 3610 1852 3776 
Q 1670 3942 1344 3942 
Q 768 3942 390 3264 
z
" transform="scale(0.015625)"/>
       </defs>
       <use xlink:href="#STIXGeneral-Regular-33"/>
      </g>
     </g>
    </g>
    <g id="ytick_3">
     <g id="line2d_12">
      <g>
       <use xlink:href="#mc0c4108166" x="57.6" y="151.630321" style="stroke: #000000; stroke-width: 0.8"/>
      </g>
     </g>
     <g id="text_12">
      <!-- 4 -->
      <g transform="translate(44.6 155.728134)scale(0.12 -0.12)">
       <defs>
        <path id="STIXGeneral-Regular-34" d="M 3027 1069 
L 2368 1069 
L 2368 0 
L 1869 0 
L 1869 1069 
L 77 1069 
L 77 1478 
L 2086 4326 
L 2368 4326 
L 2368 1478 
L 3027 1478 
L 3027 1069 
z
M 1869 1478 
L 1869 3674 
L 333 1478 
L 1869 1478 
z
" transform="scale(0.015625)"/>
       </defs>
       <use xlink:href="#STIXGeneral-Regular-34"/>
      </g>
     </g>
    </g>
    <g id="ytick_4">
     <g id="line2d_13">
      <g>
       <use xlink:href="#mc0c4108166" x="57.6" y="92.595174" style="stroke: #000000; stroke-width: 0.8"/>
      </g>
     </g>
     <g id="text_13">
      <!-- 5 -->
      <g transform="translate(44.6 96.692986)scale(0.12 -0.12)">
       <use xlink:href="#STIXGeneral-Regular-35"/>
      </g>
     </g>
    </g>
   </g>
   <g id="line2d_14">
    <path d="M 73.832727 53.568 
L 75.464157 80.30462 
L 77.095587 81.214236 
L 78.727017 79.931096 
L 80.358447 77.906256 
L 81.989877 83.395 
L 83.621307 97.563732 
L 85.252736 88.323276 
L 86.884166 94.369422 
L 88.515596 106.206983 
L 90.147026 125.334335 
L 91.778456 109.589421 
L 93.409886 135.927097 
L 95.041316 98.197336 
L 96.672746 118.035085 
L 98.304175 125.824993 
L 99.935605 171.536237 
L 101.567035 167.526825 
L 103.198465 226.782346 
L 104.829895 214.47669 
L 106.461325 213.732372 
L 108.092755 243.760632 
L 109.724185 199.487945 
L 111.355614 238.858466 
L 112.987044 232.923316 
L 114.618474 228.964053 
L 116.249904 225.336216 
L 117.881334 249.365172 
L 119.512764 211.590455 
L 121.144194 237.73861 
L 122.775624 214.057872 
L 124.407053 243.362138 
L 126.038483 245.867417 
L 127.669913 235.582478 
L 129.301343 238.498679 
L 130.932773 227.054094 
L 132.564203 203.436398 
L 134.195633 246.402158 
L 135.827063 234.551211 
L 139.089922 230.442823 
L 140.721352 254.852974 
L 142.352782 240.474284 
L 143.984212 239.388266 
L 145.615642 244.63026 
L 147.247072 228.700793 
L 148.878502 240.793873 
L 150.509931 119.605611 
L 152.141361 257.012977 
L 153.772791 232.793178 
L 155.404221 237.969597 
L 157.035651 254.743259 
L 158.667081 246.75464 
L 160.298511 242.068934 
L 161.929941 244.087863 
L 163.56137 259.991095 
L 165.1928 249.129288 
L 166.82423 227.028885 
L 168.45566 263.827721 
L 170.08709 260.704799 
L 171.71852 254.299401 
L 173.34995 252.259205 
L 174.98138 250.038355 
L 176.61281 228.681975 
L 178.244239 269.248751 
L 179.875669 245.112219 
L 181.507099 240.848133 
L 183.138529 257.224005 
L 184.769959 256.936423 
L 186.401389 258.667953 
L 188.032819 251.696723 
L 189.664249 280.797702 
L 191.295678 235.361006 
L 192.927108 237.85632 
L 194.558538 241.650764 
L 196.189968 256.309773 
L 197.821398 253.497136 
L 199.452828 252.313253 
L 201.084258 202.96995 
L 202.715688 256.791084 
L 204.347117 260.371037 
L 205.978547 264.935078 
L 207.609977 243.075556 
L 209.241407 234.194858 
L 210.872837 238.108138 
L 212.504267 263.398516 
L 214.135697 252.682133 
L 215.767127 233.40557 
L 217.398556 269.123525 
L 219.029986 269.038131 
L 220.661416 238.689931 
L 222.292846 275.193845 
L 223.924276 250.886406 
L 225.555706 260.98388 
L 227.187136 252.803446 
L 228.818566 272.320171 
L 230.449995 256.668588 
L 232.081425 243.547901 
L 233.712855 247.307143 
L 235.344285 238.597345 
L 236.975715 266.465911 
L 238.607145 238.038353 
L 240.238575 257.005518 
L 241.870005 286.751284 
L 243.501434 287.874186 
L 245.132864 278.40147 
L 246.764294 267.17932 
L 248.395724 238.700332 
L 250.027154 254.051342 
L 251.658584 246.354795 
L 253.290014 269.976629 
L 254.921444 291.201513 
L 256.552873 267.288824 
L 258.184303 255.247949 
L 259.815733 250.04863 
L 261.447163 256.318654 
L 263.078593 254.217062 
L 264.710023 240.177005 
L 266.341453 286.058515 
L 267.972883 241.667513 
L 269.604312 255.613366 
L 271.235742 288.312963 
L 272.867172 264.946183 
L 274.498602 267.753049 
L 276.130032 241.606315 
L 277.761462 259.46221 
L 279.392892 228.03873 
L 281.024322 273.02888 
L 282.655751 259.920184 
L 284.287181 274.597857 
L 285.918611 270.82518 
L 287.550041 257.107182 
L 289.181471 257.073894 
L 290.812901 270.984355 
L 292.444331 273.72668 
L 294.075761 280.053778 
L 295.70719 240.180819 
L 297.33862 225.927257 
L 298.97005 273.477586 
L 300.60148 257.855751 
L 302.23291 268.108318 
L 303.86434 272.471859 
L 305.49577 274.3358 
L 307.1272 250.882944 
L 308.75863 279.84881 
L 310.390059 258.70863 
L 312.021489 283.055126 
L 313.652919 251.384439 
L 315.284349 245.546111 
L 316.915779 245.833806 
L 318.547209 281.085918 
L 320.178639 280.367554 
L 321.810069 235.436041 
L 323.441498 270.964742 
L 325.072928 247.140297 
L 328.335788 282.15708 
L 329.967218 218.803031 
L 331.598648 274.562507 
L 333.230078 241.752048 
L 334.861508 264.611281 
L 336.492937 260.170172 
L 338.124367 277.294641 
L 339.755797 240.464826 
L 341.387227 272.553536 
L 343.018657 242.651262 
L 344.650087 254.658907 
L 346.281517 253.778666 
L 347.912947 277.447292 
L 349.544376 265.383608 
L 351.175806 274.299606 
L 352.807236 249.754235 
L 354.438666 271.756042 
L 356.070096 273.047839 
L 357.701526 277.344805 
L 359.332956 257.252957 
L 360.964386 277.994222 
L 362.595815 233.133147 
L 364.227245 280.419055 
L 365.858675 255.687556 
L 367.490105 239.680858 
L 369.121535 283.872079 
L 370.752965 253.694722 
L 372.384395 279.255398 
L 374.015825 250.030825 
L 375.647254 264.262922 
L 377.278684 261.924855 
L 378.910114 255.828137 
L 380.541544 266.295462 
L 382.172974 267.707389 
L 383.804404 255.382689 
L 385.435834 295.488 
L 387.067264 260.385056 
L 388.698693 272.882844 
L 390.330123 249.755727 
L 391.961553 245.592235 
L 393.592983 254.359023 
L 395.224413 275.686268 
L 396.855843 278.462478 
L 398.487273 243.910194 
L 398.487273 243.910194 
" clip-path="url(#pd42850bb6d)" style="fill: none; stroke: #1f77b4; stroke-width: 1.5; stroke-linecap: square"/>
   </g>
   <g id="patch_3">
    <path d="M 57.6 307.584 
L 57.6 41.472 
" style="fill: none; stroke: #000000; stroke-width: 0.8; stroke-linejoin: miter; stroke-linecap: square"/>
   </g>
   <g id="patch_4">
    <path d="M 414.72 307.584 
L 414.72 41.472 
" style="fill: none; stroke: #000000; stroke-width: 0.8; stroke-linejoin: miter; stroke-linecap: square"/>
   </g>
   <g id="patch_5">
    <path d="M 57.6 307.584 
L 414.72 307.584 
" style="fill: none; stroke: #000000; stroke-width: 0.8; stroke-linejoin: miter; stroke-linecap: square"/>
   </g>
   <g id="patch_6">
    <path d="M 57.6 41.472 
L 414.72 41.472 
" style="fill: none; stroke: #000000; stroke-width: 0.8; stroke-linejoin: miter; stroke-linecap: square"/>
   </g>
  </g>
 </g>
 <defs>
  <clipPath id="pd42850bb6d">
   <rect x="57.6" y="41.472" width="357.12" height="266.112"/>
  </clipPath>
 </defs>
</svg>
