<?xml version="1.0" encoding="utf-8" standalone="no"?>
<!DOCTYPE svg PUBLIC "-//W3C//DTD SVG 1.1//EN"
  "http://www.w3.org/Graphics/SVG/1.1/DTD/svg11.dtd">
<svg xmlns:xlink="http://www.w3.org/1999/xlink" width="460.8pt" height="345.6pt" viewBox="0 0 460.8 345.6" xmlns="http://www.w3.org/2000/svg" version="1.1">
 <metadata>
  <rdf:RDF xmlns:dc="http://purl.org/dc/elements/1.1/" xmlns:cc="http://creativecommons.org/ns#" xmlns:rdf="http://www.w3.org/1999/02/22-rdf-syntax-ns#">
   <cc:Work>
    <dc:type rdf:resource="http://purl.org/dc/dcmitype/StillImage"/>
    <dc:date>2023-10-19T12:10:43.228221</dc:date>
    <dc:format>image/svg+xml</dc:format>
    <dc:creator>
     <cc:Agent>
      <dc:title>Matplotlib v3.5.1, https://matplotlib.org/</dc:title>
     </cc:Agent>
    </dc:creator>
   </cc:Work>
  </rdf:RDF>
 </metadata>
 <defs>
  <style type="text/css">*{stroke-linejoin: round; stroke-linecap: butt}</style>
 </defs>
 <g id="figure_1">
  <g id="patch_1">
   <path d="M 0 345.6 
L 460.8 345.6 
L 460.8 0 
L 0 0 
z
" style="fill: #ffffff"/>
  </g>
  <g id="axes_1">
   <g id="patch_2">
    <path d="M 57.6 307.584 
L 414.72 307.584 
L 414.72 41.472 
L 57.6 41.472 
z
" style="fill: #ffffff"/>
   </g>
   <g id="PathCollection_1">
    <defs>
     <path id="mce69dc7e3b" d="M -3 0 
L 3 0 
M 0 3 
L 0 -3 
" style="stroke: #000000; stroke-width: 1.5"/>
    </defs>
    <g clip-path="url(#pf03825f5f9)">
     <use xlink:href="#mce69dc7e3b" x="73.832727" y="213.234582" style="stroke: #000000; stroke-width: 1.5"/>
     <use xlink:href="#mce69dc7e3b" x="77.112066" y="169.701748" style="stroke: #000000; stroke-width: 1.5"/>
     <use xlink:href="#mce69dc7e3b" x="80.391405" y="171.564242" style="stroke: #000000; stroke-width: 1.5"/>
     <use xlink:href="#mce69dc7e3b" x="83.670744" y="155.023846" style="stroke: #000000; stroke-width: 1.5"/>
     <use xlink:href="#mce69dc7e3b" x="86.950083" y="141.138164" style="stroke: #000000; stroke-width: 1.5"/>
     <use xlink:href="#mce69dc7e3b" x="90.229421" y="124.469643" style="stroke: #000000; stroke-width: 1.5"/>
     <use xlink:href="#mce69dc7e3b" x="93.50876" y="158.155466" style="stroke: #000000; stroke-width: 1.5"/>
     <use xlink:href="#mce69dc7e3b" x="96.788099" y="104.007219" style="stroke: #000000; stroke-width: 1.5"/>
     <use xlink:href="#mce69dc7e3b" x="100.067438" y="114.917266" style="stroke: #000000; stroke-width: 1.5"/>
     <use xlink:href="#mce69dc7e3b" x="103.346777" y="115.908153" style="stroke: #000000; stroke-width: 1.5"/>
     <use xlink:href="#mce69dc7e3b" x="106.626116" y="144.889772" style="stroke: #000000; stroke-width: 1.5"/>
     <use xlink:href="#mce69dc7e3b" x="109.905455" y="157.654694" style="stroke: #000000; stroke-width: 1.5"/>
     <use xlink:href="#mce69dc7e3b" x="113.184793" y="176.216507" style="stroke: #000000; stroke-width: 1.5"/>
     <use xlink:href="#mce69dc7e3b" x="116.464132" y="175.210846" style="stroke: #000000; stroke-width: 1.5"/>
     <use xlink:href="#mce69dc7e3b" x="119.743471" y="181.323067" style="stroke: #000000; stroke-width: 1.5"/>
     <use xlink:href="#mce69dc7e3b" x="123.02281" y="210.455291" style="stroke: #000000; stroke-width: 1.5"/>
     <use xlink:href="#mce69dc7e3b" x="126.302149" y="198.640364" style="stroke: #000000; stroke-width: 1.5"/>
     <use xlink:href="#mce69dc7e3b" x="129.581488" y="211.777079" style="stroke: #000000; stroke-width: 1.5"/>
     <use xlink:href="#mce69dc7e3b" x="132.860826" y="185.215898" style="stroke: #000000; stroke-width: 1.5"/>
     <use xlink:href="#mce69dc7e3b" x="136.140165" y="198.478218" style="stroke: #000000; stroke-width: 1.5"/>
     <use xlink:href="#mce69dc7e3b" x="139.419504" y="198.361959" style="stroke: #000000; stroke-width: 1.5"/>
     <use xlink:href="#mce69dc7e3b" x="142.698843" y="192.272713" style="stroke: #000000; stroke-width: 1.5"/>
     <use xlink:href="#mce69dc7e3b" x="145.978182" y="171.48147" style="stroke: #000000; stroke-width: 1.5"/>
     <use xlink:href="#mce69dc7e3b" x="149.257521" y="173.062373" style="stroke: #000000; stroke-width: 1.5"/>
     <use xlink:href="#mce69dc7e3b" x="152.53686" y="168.098056" style="stroke: #000000; stroke-width: 1.5"/>
     <use xlink:href="#mce69dc7e3b" x="155.816198" y="160.380151" style="stroke: #000000; stroke-width: 1.5"/>
     <use xlink:href="#mce69dc7e3b" x="159.095537" y="165.903015" style="stroke: #000000; stroke-width: 1.5"/>
     <use xlink:href="#mce69dc7e3b" x="162.374876" y="161.566496" style="stroke: #000000; stroke-width: 1.5"/>
     <use xlink:href="#mce69dc7e3b" x="165.654215" y="163.242039" style="stroke: #000000; stroke-width: 1.5"/>
     <use xlink:href="#mce69dc7e3b" x="168.933554" y="166.095147" style="stroke: #000000; stroke-width: 1.5"/>
     <use xlink:href="#mce69dc7e3b" x="172.212893" y="169.852635" style="stroke: #000000; stroke-width: 1.5"/>
     <use xlink:href="#mce69dc7e3b" x="175.492231" y="172.474104" style="stroke: #000000; stroke-width: 1.5"/>
     <use xlink:href="#mce69dc7e3b" x="178.77157" y="174.515021" style="stroke: #000000; stroke-width: 1.5"/>
     <use xlink:href="#mce69dc7e3b" x="182.050909" y="172.55694" style="stroke: #000000; stroke-width: 1.5"/>
     <use xlink:href="#mce69dc7e3b" x="185.330248" y="171.154347" style="stroke: #000000; stroke-width: 1.5"/>
     <use xlink:href="#mce69dc7e3b" x="188.609587" y="172.764346" style="stroke: #000000; stroke-width: 1.5"/>
     <use xlink:href="#mce69dc7e3b" x="191.888926" y="166.923949" style="stroke: #000000; stroke-width: 1.5"/>
     <use xlink:href="#mce69dc7e3b" x="195.168264" y="162.941484" style="stroke: #000000; stroke-width: 1.5"/>
     <use xlink:href="#mce69dc7e3b" x="198.447603" y="157.127391" style="stroke: #000000; stroke-width: 1.5"/>
     <use xlink:href="#mce69dc7e3b" x="201.726942" y="167.848639" style="stroke: #000000; stroke-width: 1.5"/>
     <use xlink:href="#mce69dc7e3b" x="205.006281" y="163.306033" style="stroke: #000000; stroke-width: 1.5"/>
     <use xlink:href="#mce69dc7e3b" x="208.28562" y="173.001526" style="stroke: #000000; stroke-width: 1.5"/>
     <use xlink:href="#mce69dc7e3b" x="211.564959" y="163.843252" style="stroke: #000000; stroke-width: 1.5"/>
     <use xlink:href="#mce69dc7e3b" x="214.844298" y="179.768803" style="stroke: #000000; stroke-width: 1.5"/>
     <use xlink:href="#mce69dc7e3b" x="218.123636" y="182.148874" style="stroke: #000000; stroke-width: 1.5"/>
     <use xlink:href="#mce69dc7e3b" x="221.402975" y="178.513426" style="stroke: #000000; stroke-width: 1.5"/>
     <use xlink:href="#mce69dc7e3b" x="224.682314" y="184.776866" style="stroke: #000000; stroke-width: 1.5"/>
     <use xlink:href="#mce69dc7e3b" x="227.961653" y="192.833697" style="stroke: #000000; stroke-width: 1.5"/>
     <use xlink:href="#mce69dc7e3b" x="231.240992" y="208.205714" style="stroke: #000000; stroke-width: 1.5"/>
     <use xlink:href="#mce69dc7e3b" x="234.520331" y="222.027097" style="stroke: #000000; stroke-width: 1.5"/>
     <use xlink:href="#mce69dc7e3b" x="237.799669" y="211.036699" style="stroke: #000000; stroke-width: 1.5"/>
     <use xlink:href="#mce69dc7e3b" x="241.079008" y="201.262231" style="stroke: #000000; stroke-width: 1.5"/>
     <use xlink:href="#mce69dc7e3b" x="244.358347" y="211.900382" style="stroke: #000000; stroke-width: 1.5"/>
     <use xlink:href="#mce69dc7e3b" x="247.637686" y="156.947432" style="stroke: #000000; stroke-width: 1.5"/>
     <use xlink:href="#mce69dc7e3b" x="250.917025" y="149.864749" style="stroke: #000000; stroke-width: 1.5"/>
     <use xlink:href="#mce69dc7e3b" x="254.196364" y="160.43051" style="stroke: #000000; stroke-width: 1.5"/>
     <use xlink:href="#mce69dc7e3b" x="257.475702" y="158.42394" style="stroke: #000000; stroke-width: 1.5"/>
     <use xlink:href="#mce69dc7e3b" x="260.755041" y="147.591122" style="stroke: #000000; stroke-width: 1.5"/>
     <use xlink:href="#mce69dc7e3b" x="264.03438" y="137.140332" style="stroke: #000000; stroke-width: 1.5"/>
     <use xlink:href="#mce69dc7e3b" x="267.313719" y="107.550891" style="stroke: #000000; stroke-width: 1.5"/>
     <use xlink:href="#mce69dc7e3b" x="270.593058" y="97.181744" style="stroke: #000000; stroke-width: 1.5"/>
     <use xlink:href="#mce69dc7e3b" x="273.872397" y="103.723291" style="stroke: #000000; stroke-width: 1.5"/>
     <use xlink:href="#mce69dc7e3b" x="277.151736" y="142.873213" style="stroke: #000000; stroke-width: 1.5"/>
     <use xlink:href="#mce69dc7e3b" x="280.431074" y="171.134197" style="stroke: #000000; stroke-width: 1.5"/>
     <use xlink:href="#mce69dc7e3b" x="283.710413" y="192.681359" style="stroke: #000000; stroke-width: 1.5"/>
     <use xlink:href="#mce69dc7e3b" x="286.989752" y="168.776431" style="stroke: #000000; stroke-width: 1.5"/>
     <use xlink:href="#mce69dc7e3b" x="290.269091" y="267.966988" style="stroke: #000000; stroke-width: 1.5"/>
     <use xlink:href="#mce69dc7e3b" x="293.54843" y="194.276284" style="stroke: #000000; stroke-width: 1.5"/>
     <use xlink:href="#mce69dc7e3b" x="296.827769" y="247.308974" style="stroke: #000000; stroke-width: 1.5"/>
     <use xlink:href="#mce69dc7e3b" x="300.107107" y="294.806654" style="stroke: #000000; stroke-width: 1.5"/>
     <use xlink:href="#mce69dc7e3b" x="303.386446" y="224.310261" style="stroke: #000000; stroke-width: 1.5"/>
     <use xlink:href="#mce69dc7e3b" x="306.665785" y="195.034256" style="stroke: #000000; stroke-width: 1.5"/>
     <use xlink:href="#mce69dc7e3b" x="309.945124" y="208.35512" style="stroke: #000000; stroke-width: 1.5"/>
     <use xlink:href="#mce69dc7e3b" x="313.224463" y="197.265968" style="stroke: #000000; stroke-width: 1.5"/>
     <use xlink:href="#mce69dc7e3b" x="316.503802" y="152.337941" style="stroke: #000000; stroke-width: 1.5"/>
     <use xlink:href="#mce69dc7e3b" x="319.78314" y="164.313621" style="stroke: #000000; stroke-width: 1.5"/>
     <use xlink:href="#mce69dc7e3b" x="323.062479" y="129.570782" style="stroke: #000000; stroke-width: 1.5"/>
     <use xlink:href="#mce69dc7e3b" x="326.341818" y="79.090088" style="stroke: #000000; stroke-width: 1.5"/>
     <use xlink:href="#mce69dc7e3b" x="329.621157" y="73.213736" style="stroke: #000000; stroke-width: 1.5"/>
     <use xlink:href="#mce69dc7e3b" x="332.900496" y="51.765141" style="stroke: #000000; stroke-width: 1.5"/>
     <use xlink:href="#mce69dc7e3b" x="336.179835" y="37.75047" style="stroke: #000000; stroke-width: 1.5"/>
     <use xlink:href="#mce69dc7e3b" x="339.459174" y="98.840922" style="stroke: #000000; stroke-width: 1.5"/>
     <use xlink:href="#mce69dc7e3b" x="342.738512" y="73.330674" style="stroke: #000000; stroke-width: 1.5"/>
     <use xlink:href="#mce69dc7e3b" x="346.017851" y="169.180374" style="stroke: #000000; stroke-width: 1.5"/>
     <use xlink:href="#mce69dc7e3b" x="349.29719" y="155.748065" style="stroke: #000000; stroke-width: 1.5"/>
     <use xlink:href="#mce69dc7e3b" x="352.576529" y="169.50313" style="stroke: #000000; stroke-width: 1.5"/>
     <use xlink:href="#mce69dc7e3b" x="355.855868" y="224.624316" style="stroke: #000000; stroke-width: 1.5"/>
     <use xlink:href="#mce69dc7e3b" x="359.135207" y="243.024449" style="stroke: #000000; stroke-width: 1.5"/>
     <use xlink:href="#mce69dc7e3b" x="362.414545" y="267.904465" style="stroke: #000000; stroke-width: 1.5"/>
     <use xlink:href="#mce69dc7e3b" x="365.693884" y="296.202755" style="stroke: #000000; stroke-width: 1.5"/>
     <use xlink:href="#mce69dc7e3b" x="368.973223" y="251.871659" style="stroke: #000000; stroke-width: 1.5"/>
     <use xlink:href="#mce69dc7e3b" x="372.252562" y="293.563098" style="stroke: #000000; stroke-width: 1.5"/>
     <use xlink:href="#mce69dc7e3b" x="375.531901" y="324.02789" style="stroke: #000000; stroke-width: 1.5"/>
     <use xlink:href="#mce69dc7e3b" x="378.81124" y="257.64729" style="stroke: #000000; stroke-width: 1.5"/>
     <use xlink:href="#mce69dc7e3b" x="382.090579" y="231.333202" style="stroke: #000000; stroke-width: 1.5"/>
     <use xlink:href="#mce69dc7e3b" x="385.369917" y="165.160135" style="stroke: #000000; stroke-width: 1.5"/>
     <use xlink:href="#mce69dc7e3b" x="388.649256" y="142.173493" style="stroke: #000000; stroke-width: 1.5"/>
     <use xlink:href="#mce69dc7e3b" x="391.928595" y="141.424546" style="stroke: #000000; stroke-width: 1.5"/>
     <use xlink:href="#mce69dc7e3b" x="395.207934" y="14.422364" style="stroke: #000000; stroke-width: 1.5"/>
     <use xlink:href="#mce69dc7e3b" x="398.487273" y="94.598745" style="stroke: #000000; stroke-width: 1.5"/>
    </g>
   </g>
   <g id="PolyCollection_1">
    <path d="M 73.832727 123.074552 
L 73.832727 399.023557 
L 77.112066 404.032952 
L 80.391405 391.246442 
L 83.670744 374.915481 
L 86.950083 372.847749 
L 90.229421 360.262198 
L 93.50876 349.270336 
L 96.788099 312.376714 
L 100.067438 305.958259 
L 103.346777 307.176182 
L 106.626116 291.402873 
L 109.905455 277.020086 
L 113.184793 272.325421 
L 116.464132 254.342547 
L 119.743471 253.202587 
L 123.02281 243.960928 
L 126.302149 237.160349 
L 129.581488 224.991531 
L 132.860826 219.921367 
L 136.140165 213.055509 
L 139.419504 201.670561 
L 142.698843 197.687635 
L 145.978182 191.273227 
L 149.257521 183.94177 
L 152.53686 177.519093 
L 155.816198 172.04057 
L 159.095537 168.522858 
L 162.374876 166.0446 
L 165.654215 166.666895 
L 168.933554 168.511482 
L 172.212893 171.519952 
L 175.492231 174.445281 
L 178.77157 176.807147 
L 182.050909 177.43278 
L 185.330248 177.484453 
L 188.609587 176.159306 
L 191.888926 174.023557 
L 195.168264 172.568752 
L 198.447603 170.393111 
L 201.726942 168.485378 
L 205.006281 168.558417 
L 208.28562 169.653183 
L 211.564959 173.990811 
L 214.844298 177.712342 
L 218.123636 185.890551 
L 221.402975 192.123105 
L 224.682314 201.027053 
L 227.961653 209.581546 
L 231.240992 212.716422 
L 234.520331 213.864608 
L 237.799669 212.299924 
L 241.079008 207.190436 
L 244.358347 200.905132 
L 247.637686 188.913908 
L 250.917025 178.448734 
L 254.196364 165.426375 
L 257.475702 152.610066 
L 260.755041 142.8392 
L 264.03438 136.062684 
L 267.313719 131.940807 
L 270.593058 133.486229 
L 273.872397 141.090789 
L 277.151736 152.431449 
L 280.431074 167.4427 
L 283.710413 184.621179 
L 286.989752 199.861019 
L 290.269091 213.190221 
L 293.54843 227.487936 
L 296.827769 242.570489 
L 300.107107 251.240061 
L 303.386446 264.533797 
L 306.665785 275.708872 
L 309.945124 286.717357 
L 313.224463 299.421171 
L 316.503802 313.765688 
L 319.78314 320.095433 
L 323.062479 327.877484 
L 326.341818 338.383654 
L 329.621157 344.116563 
L 332.900496 356.848103 
L 336.179835 371.350384 
L 339.459174 383.460204 
L 342.738512 384.738971 
L 346.017851 394.613853 
L 349.29719 394.976816 
L 352.576529 418.880798 
L 355.855868 418.573745 
L 359.135207 430.039333 
L 362.414545 446.33446 
L 365.693884 443.31788 
L 368.973223 461.985077 
L 372.252562 473.266773 
L 375.531901 506.090737 
L 378.81124 504.112362 
L 382.090579 512.991281 
L 385.369917 521.235435 
L 388.649256 539.131788 
L 391.928595 566.972394 
L 395.207934 628.506226 
L 398.487273 551.203438 
L 398.487273 321.859284 
L 398.487273 321.859284 
L 395.207934 261.658263 
L 391.928595 290.909986 
L 388.649256 311.190603 
L 385.369917 329.62777 
L 382.090579 323.772093 
L 378.81124 305.938286 
L 375.531901 313.050219 
L 372.252562 325.534333 
L 368.973223 324.438556 
L 365.693884 324.112164 
L 362.414545 319.020606 
L 359.135207 314.357056 
L 355.855868 320.426393 
L 352.576529 315.110795 
L 349.29719 304.744396 
L 346.017851 323.235568 
L 342.738512 300.646441 
L 339.459174 299.949652 
L 336.179835 286.5702 
L 332.900496 297.429867 
L 329.621157 289.458759 
L 326.341818 285.312916 
L 323.062479 279.385063 
L 319.78314 270.122562 
L 316.503802 273.841274 
L 313.224463 262.430027 
L 309.945124 253.293226 
L 306.665785 242.468943 
L 303.386446 236.520502 
L 300.107107 221.923052 
L 296.827769 213.892331 
L 293.54843 204.142095 
L 290.269091 188.467721 
L 286.989752 176.730924 
L 283.710413 163.159899 
L 280.431074 146.787885 
L 277.151736 131.294152 
L 273.872397 120.552737 
L 270.593058 113.371031 
L 267.313719 112.588075 
L 264.03438 117.577828 
L 260.755041 124.621544 
L 257.475702 135.802346 
L 254.196364 147.779611 
L 250.917025 161.385518 
L 247.637686 171.725646 
L 244.358347 184.07788 
L 241.079008 190.779939 
L 237.799669 195.828398 
L 234.520331 197.379651 
L 231.240992 196.832102 
L 227.961653 194.613248 
L 224.682314 186.333021 
L 221.402975 177.506507 
L 218.123636 172.138928 
L 214.844298 163.990252 
L 211.564959 161.262068 
L 208.28562 157.190214 
L 205.006281 157.196349 
L 201.726942 157.800376 
L 198.447603 160.257338 
L 195.168264 163.175489 
L 191.888926 165.188705 
L 188.609587 167.657502 
L 185.330248 169.964703 
L 182.050909 170.918396 
L 178.77157 171.643985 
L 175.492231 170.512056 
L 172.212893 168.223601 
L 168.933554 165.073203 
L 165.654215 162.21581 
L 162.374876 159.776323 
L 159.095537 159.328287 
L 155.816198 159.419198 
L 152.53686 159.28912 
L 149.257521 162.456917 
L 145.978182 163.202141 
L 142.698843 164.757631 
L 139.419504 164.3452 
L 136.140165 163.552853 
L 132.860826 164.335786 
L 129.581488 165.395145 
L 126.302149 163.400398 
L 123.02281 165.432289 
L 119.743471 165.425428 
L 116.464132 166.833352 
L 113.184793 157.603085 
L 109.905455 157.336872 
L 106.626116 156.206479 
L 103.346777 147.10247 
L 100.067438 156.421482 
L 96.788099 146.678657 
L 93.50876 134.245973 
L 90.229421 132.801046 
L 86.950083 120.1588 
L 83.670744 110.929336 
L 80.391405 118.683705 
L 77.112066 108.231534 
L 73.832727 123.074552 
z
" clip-path="url(#pf03825f5f9)" style="fill: #8a2be2; fill-opacity: 0.501961"/>
   </g>
   <g id="PolyCollection_2">
    <path d="M 73.832727 399.023557 
L 73.832727 619.060379 
L 77.112066 568.904631 
L 80.391405 542.038784 
L 83.670744 506.64391 
L 86.950083 510.329745 
L 90.229421 473.906614 
L 93.50876 469.469324 
L 96.788099 419.657936 
L 100.067438 386.71609 
L 103.346777 389.480459 
L 106.626116 382.532521 
L 109.905455 349.948942 
L 113.184793 330.270758 
L 116.464132 309.106337 
L 119.743471 300.695638 
L 123.02281 295.164323 
L 126.302149 273.884411 
L 129.581488 261.995327 
L 132.860826 247.703559 
L 136.140165 240.135125 
L 139.419504 218.942332 
L 142.698843 209.510607 
L 145.978182 200.403218 
L 149.257521 192.056594 
L 152.53686 181.51857 
L 155.816198 175.035899 
L 159.095537 170.22258 
L 162.374876 167.116913 
L 165.654215 167.444356 
L 168.933554 169.010402 
L 172.212893 171.844228 
L 175.492231 174.759553 
L 178.77157 177.167763 
L 182.050909 177.919893 
L 185.330248 178.282087 
L 188.609587 177.395816 
L 191.888926 175.900542 
L 195.168264 176.08734 
L 198.447603 175.00162 
L 201.726942 172.917536 
L 205.006281 175.933486 
L 208.28562 176.608164 
L 211.564959 182.890694 
L 214.844298 188.027996 
L 218.123636 195.714484 
L 221.402975 202.079058 
L 224.682314 210.531949 
L 227.961653 221.377851 
L 231.240992 226.817312 
L 234.520331 229.489938 
L 237.799669 227.919331 
L 241.079008 222.565485 
L 244.358347 218.964382 
L 247.637686 201.816553 
L 250.917025 189.737235 
L 254.196364 174.653991 
L 257.475702 161.780976 
L 260.755041 152.116357 
L 264.03438 146.986395 
L 267.313719 141.910255 
L 270.593058 145.9627 
L 273.872397 151.442877 
L 277.151736 166.779135 
L 280.431074 186.917357 
L 283.710413 203.552209 
L 286.989752 229.553131 
L 290.269091 251.183531 
L 293.54843 271.828512 
L 296.827769 303.959175 
L 300.107107 327.313639 
L 303.386446 348.86522 
L 306.665785 384.15622 
L 309.945124 412.536448 
L 313.224463 453.053802 
L 316.503802 477.069323 
L 319.78314 474.312263 
L 323.062479 515.711695 
L 326.341818 571.253759 
L 329.621157 537.043397 
L 332.900496 565.677613 
L 336.179835 676.757248 
L 339.459174 654.193449 
L 342.738512 676.853381 
L 346.017851 755.813253 
L 349.29719 738.321991 
L 352.576529 731.617977 
L 355.855868 783.136521 
L 359.135207 960.489534 
L 362.414545 884.256066 
L 365.693884 893.504976 
L 368.973223 847.531871 
L 372.252562 1026.361096 
L 375.531901 1000.72732 
L 378.81124 1131.961607 
L 382.090579 1085.213038 
L 385.369917 1008.853439 
L 388.649256 1237.593587 
L 391.928595 1194.690255 
L 395.207934 1258.007986 
L 398.487273 1268.610683 
L 398.487273 551.203438 
L 398.487273 551.203438 
L 395.207934 628.506226 
L 391.928595 566.972394 
L 388.649256 539.131788 
L 385.369917 521.235435 
L 382.090579 512.991281 
L 378.81124 504.112362 
L 375.531901 506.090737 
L 372.252562 473.266773 
L 368.973223 461.985077 
L 365.693884 443.31788 
L 362.414545 446.33446 
L 359.135207 430.039333 
L 355.855868 418.573745 
L 352.576529 418.880798 
L 349.29719 394.976816 
L 346.017851 394.613853 
L 342.738512 384.738971 
L 339.459174 383.460204 
L 336.179835 371.350384 
L 332.900496 356.848103 
L 329.621157 344.116563 
L 326.341818 338.383654 
L 323.062479 327.877484 
L 319.78314 320.095433 
L 316.503802 313.765688 
L 313.224463 299.421171 
L 309.945124 286.717357 
L 306.665785 275.708872 
L 303.386446 264.533797 
L 300.107107 251.240061 
L 296.827769 242.570489 
L 293.54843 227.487936 
L 290.269091 213.190221 
L 286.989752 199.861019 
L 283.710413 184.621179 
L 280.431074 167.4427 
L 277.151736 152.431449 
L 273.872397 141.090789 
L 270.593058 133.486229 
L 267.313719 131.940807 
L 264.03438 136.062684 
L 260.755041 142.8392 
L 257.475702 152.610066 
L 254.196364 165.426375 
L 250.917025 178.448734 
L 247.637686 188.913908 
L 244.358347 200.905132 
L 241.079008 207.190436 
L 237.799669 212.299924 
L 234.520331 213.864608 
L 231.240992 212.716422 
L 227.961653 209.581546 
L 224.682314 201.027053 
L 221.402975 192.123105 
L 218.123636 185.890551 
L 214.844298 177.712342 
L 211.564959 173.990811 
L 208.28562 169.653183 
L 205.006281 168.558417 
L 201.726942 168.485378 
L 198.447603 170.393111 
L 195.168264 172.568752 
L 191.888926 174.023557 
L 188.609587 176.159306 
L 185.330248 177.484453 
L 182.050909 177.43278 
L 178.77157 176.807147 
L 175.492231 174.445281 
L 172.212893 171.519952 
L 168.933554 168.511482 
L 165.654215 166.666895 
L 162.374876 166.0446 
L 159.095537 168.522858 
L 155.816198 172.04057 
L 152.53686 177.519093 
L 149.257521 183.94177 
L 145.978182 191.273227 
L 142.698843 197.687635 
L 139.419504 201.670561 
L 136.140165 213.055509 
L 132.860826 219.921367 
L 129.581488 224.991531 
L 126.302149 237.160349 
L 123.02281 243.960928 
L 119.743471 253.202587 
L 116.464132 254.342547 
L 113.184793 272.325421 
L 109.905455 277.020086 
L 106.626116 291.402873 
L 103.346777 307.176182 
L 100.067438 305.958259 
L 96.788099 312.376714 
L 93.50876 349.270336 
L 90.229421 360.262198 
L 86.950083 372.847749 
L 83.670744 374.915481 
L 80.391405 391.246442 
L 77.112066 404.032952 
L 73.832727 399.023557 
z
" clip-path="url(#pf03825f5f9)" style="fill: #3cb371; fill-opacity: 0.501961"/>
   </g>
   <g id="PolyCollection_3">
    <path d="M 73.832727 123.074552 
L 73.832727 -96.962245 
L 77.112066 -56.640126 
L 80.391405 -32.108637 
L 83.670744 -20.7991 
L 86.950083 -17.323196 
L 90.229421 19.15663 
L 93.50876 14.046965 
L 96.788099 39.397441 
L 100.067438 75.663638 
L 103.346777 64.79818 
L 106.626116 65.076835 
L 109.905455 84.408007 
L 113.184793 99.657759 
L 116.464132 112.069569 
L 119.743471 117.932377 
L 123.02281 114.228892 
L 126.302149 126.676339 
L 129.581488 128.391346 
L 132.860826 136.553591 
L 136.140165 136.473234 
L 139.419504 147.073431 
L 142.698843 152.934659 
L 145.978182 154.07215 
L 149.257521 154.342095 
L 152.53686 155.289643 
L 155.816198 156.423871 
L 159.095537 157.628565 
L 162.374876 158.704009 
L 165.654215 161.438349 
L 168.933554 164.574283 
L 172.212893 167.899325 
L 175.492231 170.197784 
L 178.77157 171.283369 
L 182.050909 170.431282 
L 185.330248 169.167069 
L 188.609587 166.420993 
L 191.888926 163.31172 
L 195.168264 159.656901 
L 198.447603 155.64883 
L 201.726942 153.368217 
L 205.006281 149.821279 
L 208.28562 150.235233 
L 211.564959 152.362185 
L 214.844298 153.674598 
L 218.123636 162.314995 
L 221.402975 167.550553 
L 224.682314 176.828125 
L 227.961653 182.816943 
L 231.240992 182.731212 
L 234.520331 181.754322 
L 237.799669 180.208991 
L 241.079008 175.404891 
L 244.358347 166.018629 
L 247.637686 158.823001 
L 250.917025 150.097015 
L 254.196364 138.551996 
L 257.475702 126.631435 
L 260.755041 115.344387 
L 264.03438 106.654113 
L 267.313719 102.618627 
L 270.593058 100.894563 
L 273.872397 110.200645 
L 277.151736 116.946463 
L 280.431074 127.31323 
L 283.710413 144.228869 
L 286.989752 147.038808 
L 290.269091 150.474412 
L 293.54843 159.801523 
L 296.827769 152.503638 
L 300.107107 145.849468 
L 303.386446 152.189079 
L 306.665785 134.021602 
L 309.945124 127.474142 
L 313.224463 108.797377 
L 316.503802 110.537639 
L 319.78314 115.905732 
L 323.062479 91.550864 
L 326.341818 52.442811 
L 329.621157 96.531924 
L 332.900496 88.600357 
L 336.179835 -18.836689 
L 339.459174 29.216407 
L 342.738512 8.532032 
L 346.017851 -37.963819 
L 349.29719 -38.600766 
L 352.576529 2.373616 
L 355.855868 -44.136357 
L 359.135207 -216.093107 
L 362.414545 -118.901025 
L 365.693884 -126.07497 
L 368.973223 -61.108251 
L 372.252562 -227.560015 
L 375.531901 -181.586377 
L 378.81124 -321.911009 
L 382.090579 -248.449702 
L 385.369917 -157.99026 
L 388.649256 -387.271196 
L 391.928595 -336.807938 
L 395.207934 -367.843459 
L 398.487273 -395.54791 
L 398.487273 321.859284 
L 398.487273 321.859284 
L 395.207934 261.658263 
L 391.928595 290.909986 
L 388.649256 311.190603 
L 385.369917 329.62777 
L 382.090579 323.772093 
L 378.81124 305.938286 
L 375.531901 313.050219 
L 372.252562 325.534333 
L 368.973223 324.438556 
L 365.693884 324.112164 
L 362.414545 319.020606 
L 359.135207 314.357056 
L 355.855868 320.426393 
L 352.576529 315.110795 
L 349.29719 304.744396 
L 346.017851 323.235568 
L 342.738512 300.646441 
L 339.459174 299.949652 
L 336.179835 286.5702 
L 332.900496 297.429867 
L 329.621157 289.458759 
L 326.341818 285.312916 
L 323.062479 279.385063 
L 319.78314 270.122562 
L 316.503802 273.841274 
L 313.224463 262.430027 
L 309.945124 253.293226 
L 306.665785 242.468943 
L 303.386446 236.520502 
L 300.107107 221.923052 
L 296.827769 213.892331 
L 293.54843 204.142095 
L 290.269091 188.467721 
L 286.989752 176.730924 
L 283.710413 163.159899 
L 280.431074 146.787885 
L 277.151736 131.294152 
L 273.872397 120.552737 
L 270.593058 113.371031 
L 267.313719 112.588075 
L 264.03438 117.577828 
L 260.755041 124.621544 
L 257.475702 135.802346 
L 254.196364 147.779611 
L 250.917025 161.385518 
L 247.637686 171.725646 
L 244.358347 184.07788 
L 241.079008 190.779939 
L 237.799669 195.828398 
L 234.520331 197.379651 
L 231.240992 196.832102 
L 227.961653 194.613248 
L 224.682314 186.333021 
L 221.402975 177.506507 
L 218.123636 172.138928 
L 214.844298 163.990252 
L 211.564959 161.262068 
L 208.28562 157.190214 
L 205.006281 157.196349 
L 201.726942 157.800376 
L 198.447603 160.257338 
L 195.168264 163.175489 
L 191.888926 165.188705 
L 188.609587 167.657502 
L 185.330248 169.964703 
L 182.050909 170.918396 
L 178.77157 171.643985 
L 175.492231 170.512056 
L 172.212893 168.223601 
L 168.933554 165.073203 
L 165.654215 162.21581 
L 162.374876 159.776323 
L 159.095537 159.328287 
L 155.816198 159.419198 
L 152.53686 159.28912 
L 149.257521 162.456917 
L 145.978182 163.202141 
L 142.698843 164.757631 
L 139.419504 164.3452 
L 136.140165 163.552853 
L 132.860826 164.335786 
L 129.581488 165.395145 
L 126.302149 163.400398 
L 123.02281 165.432289 
L 119.743471 165.425428 
L 116.464132 166.833352 
L 113.184793 157.603085 
L 109.905455 157.336872 
L 106.626116 156.206479 
L 103.346777 147.10247 
L 100.067438 156.421482 
L 96.788099 146.678657 
L 93.50876 134.245973 
L 90.229421 132.801046 
L 86.950083 120.1588 
L 83.670744 110.929336 
L 80.391405 118.683705 
L 77.112066 108.231534 
L 73.832727 123.074552 
z
" clip-path="url(#pf03825f5f9)" style="fill: #3cb371; fill-opacity: 0.501961"/>
   </g>
   <g id="matplotlib.axis_1">
    <g id="xtick_1">
     <g id="line2d_1">
      <defs>
       <path id="m2f0bbb828e" d="M 0 0 
L 0 3.5 
" style="stroke: #000000; stroke-width: 0.8"/>
      </defs>
      <g>
       <use xlink:href="#m2f0bbb828e" x="73.832727" y="307.584" style="stroke: #000000; stroke-width: 0.8"/>
      </g>
     </g>
     <g id="text_1">
      <!-- −10 -->
      <g transform="translate(63.722727 322.779625)scale(0.12 -0.12)">
       <defs>
        <path id="STIXGeneral-Regular-2212" d="M 3974 1408 
L 410 1408 
L 410 1830 
L 3974 1830 
L 3974 1408 
z
" transform="scale(0.015625)"/>
        <path id="STIXGeneral-Regular-31" d="M 2522 0 
L 755 0 
L 755 96 
Q 1107 115 1235 227 
Q 1363 339 1363 608 
L 1363 3482 
Q 1363 3795 1171 3795 
Q 1082 3795 883 3718 
L 710 3654 
L 710 3744 
L 1856 4326 
L 1914 4307 
L 1914 486 
Q 1914 275 2042 185 
Q 2170 96 2522 96 
L 2522 0 
z
" transform="scale(0.015625)"/>
        <path id="STIXGeneral-Regular-30" d="M 3046 2112 
Q 3046 1683 2963 1302 
Q 2880 922 2717 602 
Q 2554 282 2266 96 
Q 1978 -90 1600 -90 
Q 1210 -90 915 108 
Q 621 307 461 640 
Q 301 973 227 1350 
Q 154 1728 154 2150 
Q 154 2746 301 3222 
Q 448 3699 790 4012 
Q 1133 4326 1626 4326 
Q 2253 4326 2649 3712 
Q 3046 3098 3046 2112 
z
M 2432 2080 
Q 2432 3091 2217 3625 
Q 2003 4160 1587 4160 
Q 1190 4160 979 3622 
Q 768 3085 768 2106 
Q 768 1120 979 598 
Q 1190 77 1600 77 
Q 2003 77 2217 598 
Q 2432 1120 2432 2080 
z
" transform="scale(0.015625)"/>
       </defs>
       <use xlink:href="#STIXGeneral-Regular-2212"/>
       <use xlink:href="#STIXGeneral-Regular-31" x="68.499985"/>
       <use xlink:href="#STIXGeneral-Regular-30" x="118.499969"/>
      </g>
     </g>
    </g>
    <g id="xtick_2">
     <g id="line2d_2">
      <g>
       <use xlink:href="#m2f0bbb828e" x="127.941818" y="307.584" style="stroke: #000000; stroke-width: 0.8"/>
      </g>
     </g>
     <g id="text_2">
      <!-- −5 -->
      <g transform="translate(120.831818 322.779625)scale(0.12 -0.12)">
       <defs>
        <path id="STIXGeneral-Regular-35" d="M 2803 4358 
L 2573 3814 
Q 2534 3731 2400 3731 
L 1158 3731 
L 902 3187 
Q 1606 3053 1920 2896 
Q 2234 2739 2502 2368 
Q 2726 2061 2726 1555 
Q 2726 1094 2576 780 
Q 2426 467 2099 224 
Q 1664 -90 1011 -90 
Q 646 -90 422 19 
Q 198 128 198 307 
Q 198 550 486 550 
Q 717 550 960 352 
Q 1210 147 1414 147 
Q 1747 147 2012 480 
Q 2278 813 2278 1229 
Q 2278 1843 1850 2189 
Q 1293 2637 486 2637 
Q 410 2637 410 2688 
L 416 2720 
L 1114 4237 
L 2438 4237 
Q 2547 4237 2608 4269 
Q 2669 4301 2746 4403 
L 2803 4358 
z
" transform="scale(0.015625)"/>
       </defs>
       <use xlink:href="#STIXGeneral-Regular-2212"/>
       <use xlink:href="#STIXGeneral-Regular-35" x="68.499985"/>
      </g>
     </g>
    </g>
    <g id="xtick_3">
     <g id="line2d_3">
      <g>
       <use xlink:href="#m2f0bbb828e" x="182.050909" y="307.584" style="stroke: #000000; stroke-width: 0.8"/>
      </g>
     </g>
     <g id="text_3">
      <!-- 0 -->
      <g transform="translate(179.050909 322.779625)scale(0.12 -0.12)">
       <use xlink:href="#STIXGeneral-Regular-30"/>
      </g>
     </g>
    </g>
    <g id="xtick_4">
     <g id="line2d_4">
      <g>
       <use xlink:href="#m2f0bbb828e" x="236.16" y="307.584" style="stroke: #000000; stroke-width: 0.8"/>
      </g>
     </g>
     <g id="text_4">
      <!-- 5 -->
      <g transform="translate(233.16 322.779625)scale(0.12 -0.12)">
       <use xlink:href="#STIXGeneral-Regular-35"/>
      </g>
     </g>
    </g>
    <g id="xtick_5">
     <g id="line2d_5">
      <g>
       <use xlink:href="#m2f0bbb828e" x="290.269091" y="307.584" style="stroke: #000000; stroke-width: 0.8"/>
      </g>
     </g>
     <g id="text_5">
      <!-- 10 -->
      <g transform="translate(284.269091 322.779625)scale(0.12 -0.12)">
       <use xlink:href="#STIXGeneral-Regular-31"/>
       <use xlink:href="#STIXGeneral-Regular-30" x="49.999985"/>
      </g>
     </g>
    </g>
    <g id="xtick_6">
     <g id="line2d_6">
      <g>
       <use xlink:href="#m2f0bbb828e" x="344.378182" y="307.584" style="stroke: #000000; stroke-width: 0.8"/>
      </g>
     </g>
     <g id="text_6">
      <!-- 15 -->
      <g transform="translate(338.378182 322.779625)scale(0.12 -0.12)">
       <use xlink:href="#STIXGeneral-Regular-31"/>
       <use xlink:href="#STIXGeneral-Regular-35" x="49.999985"/>
      </g>
     </g>
    </g>
    <g id="xtick_7">
     <g id="line2d_7">
      <g>
       <use xlink:href="#m2f0bbb828e" x="398.487273" y="307.584" style="stroke: #000000; stroke-width: 0.8"/>
      </g>
     </g>
     <g id="text_7">
      <!-- 20 -->
      <g transform="translate(392.487273 322.779625)scale(0.12 -0.12)">
       <defs>
        <path id="STIXGeneral-Regular-32" d="M 3034 877 
L 2688 0 
L 186 0 
L 186 77 
L 1325 1286 
Q 1773 1754 1965 2144 
Q 2157 2534 2157 2950 
Q 2157 3379 1920 3616 
Q 1683 3853 1267 3853 
Q 922 3853 720 3673 
Q 518 3494 326 3021 
L 192 3053 
Q 301 3648 630 3987 
Q 960 4326 1523 4326 
Q 2054 4326 2380 4006 
Q 2707 3686 2707 3200 
Q 2707 2477 1888 1613 
L 832 486 
L 2330 486 
Q 2541 486 2665 569 
Q 2790 653 2944 915 
L 3034 877 
z
" transform="scale(0.015625)"/>
       </defs>
       <use xlink:href="#STIXGeneral-Regular-32"/>
       <use xlink:href="#STIXGeneral-Regular-30" x="49.999985"/>
      </g>
     </g>
    </g>
   </g>
   <g id="matplotlib.axis_2">
    <g id="ytick_1">
     <g id="line2d_8">
      <defs>
       <path id="m9db6feff26" d="M 0 0 
L -3.5 0 
" style="stroke: #000000; stroke-width: 0.8"/>
      </defs>
      <g>
       <use xlink:href="#m9db6feff26" x="57.6" y="307.584" style="stroke: #000000; stroke-width: 0.8"/>
      </g>
     </g>
     <g id="text_8">
      <!-- −20 -->
      <g transform="translate(30.38 311.681812)scale(0.12 -0.12)">
       <use xlink:href="#STIXGeneral-Regular-2212"/>
       <use xlink:href="#STIXGeneral-Regular-32" x="68.499985"/>
       <use xlink:href="#STIXGeneral-Regular-30" x="118.499969"/>
      </g>
     </g>
    </g>
    <g id="ytick_2">
     <g id="line2d_9">
      <g>
       <use xlink:href="#m9db6feff26" x="57.6" y="241.056" style="stroke: #000000; stroke-width: 0.8"/>
      </g>
     </g>
     <g id="text_9">
      <!-- −10 -->
      <g transform="translate(30.38 245.153812)scale(0.12 -0.12)">
       <use xlink:href="#STIXGeneral-Regular-2212"/>
       <use xlink:href="#STIXGeneral-Regular-31" x="68.499985"/>
       <use xlink:href="#STIXGeneral-Regular-30" x="118.499969"/>
      </g>
     </g>
    </g>
    <g id="ytick_3">
     <g id="line2d_10">
      <g>
       <use xlink:href="#m9db6feff26" x="57.6" y="174.528" style="stroke: #000000; stroke-width: 0.8"/>
      </g>
     </g>
     <g id="text_10">
      <!-- 0 -->
      <g transform="translate(44.6 178.625812)scale(0.12 -0.12)">
       <use xlink:href="#STIXGeneral-Regular-30"/>
      </g>
     </g>
    </g>
    <g id="ytick_4">
     <g id="line2d_11">
      <g>
       <use xlink:href="#m9db6feff26" x="57.6" y="108" style="stroke: #000000; stroke-width: 0.8"/>
      </g>
     </g>
     <g id="text_11">
      <!-- 10 -->
      <g transform="translate(38.6 112.097813)scale(0.12 -0.12)">
       <use xlink:href="#STIXGeneral-Regular-31"/>
       <use xlink:href="#STIXGeneral-Regular-30" x="49.999985"/>
      </g>
     </g>
    </g>
    <g id="ytick_5">
     <g id="line2d_12">
      <g>
       <use xlink:href="#m9db6feff26" x="57.6" y="41.472" style="stroke: #000000; stroke-width: 0.8"/>
      </g>
     </g>
     <g id="text_12">
      <!-- 20 -->
      <g transform="translate(38.6 45.569813)scale(0.12 -0.12)">
       <use xlink:href="#STIXGeneral-Regular-32"/>
       <use xlink:href="#STIXGeneral-Regular-30" x="49.999985"/>
      </g>
     </g>
    </g>
   </g>
   <g id="line2d_13">
    <path d="M 160.407273 307.584 
L 160.407273 41.472 
" clip-path="url(#pf03825f5f9)" style="fill: none; stroke-dasharray: 1.5,2.475; stroke-dashoffset: 0; stroke: #808080; stroke-width: 1.5"/>
   </g>
   <g id="line2d_14">
    <path d="M 290.269091 307.584 
L 290.269091 41.472 
" clip-path="url(#pf03825f5f9)" style="fill: none; stroke-dasharray: 1.5,2.475; stroke-dashoffset: 0; stroke: #808080; stroke-width: 1.5"/>
   </g>
   <g id="line2d_15">
    <path d="M 73.832727 261.049054 
L 77.112066 256.132246 
L 80.391405 254.965073 
L 83.670744 242.922411 
L 86.950083 246.503274 
L 90.229421 246.531622 
L 93.50876 241.758151 
L 96.788099 229.527682 
L 100.067438 231.189867 
L 103.346777 227.139326 
L 106.626116 223.804675 
L 109.905455 217.178478 
L 113.184793 214.964255 
L 116.464132 210.58795 
L 119.743471 209.314007 
L 123.02281 204.69661 
L 126.302149 200.280375 
L 129.581488 195.193338 
L 132.860826 192.128577 
L 136.140165 188.304181 
L 139.419504 183.007881 
L 142.698843 181.222633 
L 145.978182 177.237684 
L 149.257521 173.199344 
L 152.53686 168.404107 
L 155.816198 165.729885 
L 159.095537 163.925573 
L 162.374876 162.910461 
L 165.654215 164.441353 
L 168.933554 166.792343 
L 172.212893 169.871776 
L 175.492231 172.478668 
L 178.77157 174.225566 
L 182.050909 174.175588 
L 185.330248 173.724578 
L 188.609587 171.908404 
L 191.888926 169.606131 
L 195.168264 167.87212 
L 198.447603 165.325225 
L 201.726942 163.142877 
L 205.006281 162.877383 
L 208.28562 163.421698 
L 211.564959 167.62644 
L 214.844298 170.851297 
L 218.123636 179.014739 
L 221.402975 184.814805 
L 224.682314 193.680037 
L 227.961653 202.097397 
L 231.240992 204.774262 
L 234.520331 205.622129 
L 237.799669 204.064161 
L 241.079008 198.985188 
L 244.358347 192.491506 
L 247.637686 180.319777 
L 250.917025 169.917126 
L 254.196364 156.602993 
L 257.475702 144.206206 
L 260.755041 133.730372 
L 264.03438 126.820254 
L 267.313719 122.264441 
L 270.593058 123.428632 
L 273.872397 130.821761 
L 277.151736 141.862801 
L 280.431074 157.115293 
L 283.710413 173.890539 
L 286.989752 188.295971 
L 290.269091 200.828971 
L 293.54843 215.815016 
L 296.827769 228.23141 
L 300.107107 236.581557 
L 303.386446 250.527149 
L 306.665785 259.088908 
L 309.945124 270.005288 
L 313.224463 280.925596 
L 316.503802 293.803481 
L 319.78314 295.108998 
L 323.062479 303.631273 
L 326.341818 311.848285 
L 329.621157 316.787661 
L 332.900496 327.138985 
L 336.179835 328.960292 
L 339.459174 341.704928 
L 342.738512 342.692706 
L 343.527899 346.6 
" clip-path="url(#pf03825f5f9)" style="fill: none; stroke: #000000; stroke-width: 1.5; stroke-linecap: square"/>
   </g>
   <g id="line2d_16">
    <path d="M 73.832727 210.720636 
L 77.112066 191.871608 
L 80.391405 172.601018 
L 83.670744 154.708661 
L 86.950083 139.759143 
L 90.229421 128.945308 
L 93.50876 122.994984 
L 96.788099 122.128126 
L 100.067438 126.066146 
L 103.346777 134.089883 
L 106.626116 145.13797 
L 109.905455 157.933645 
L 113.184793 171.125697 
L 116.464132 183.428478 
L 119.743471 193.746663 
L 123.02281 201.272719 
L 126.302149 205.548393 
L 129.581488 206.485737 
L 132.860826 204.347627 
L 136.140165 199.692074 
L 139.419504 193.288276 
L 142.698843 186.01509 
L 145.978182 178.754035 
L 149.257521 172.28903 
L 152.53686 167.223815 
L 155.816198 163.92561 
L 159.095537 162.500242 
L 162.374876 162.800251 
L 165.654215 164.463602 
L 168.933554 166.977171 
L 172.212893 169.756458 
L 175.492231 172.231235 
L 178.77157 173.926398 
L 182.050909 174.528 
L 185.330248 173.926398 
L 188.609587 172.231235 
L 191.888926 169.756458 
L 195.168264 166.977171 
L 198.447603 164.463602 
L 201.726942 162.800251 
L 205.006281 162.500242 
L 208.28562 163.92561 
L 211.564959 167.223815 
L 214.844298 172.28903 
L 218.123636 178.754035 
L 221.402975 186.01509 
L 224.682314 193.288276 
L 227.961653 199.692074 
L 231.240992 204.347627 
L 234.520331 206.485737 
L 237.799669 205.548393 
L 241.079008 201.272719 
L 244.358347 193.746663 
L 247.637686 183.428478 
L 250.917025 171.125697 
L 254.196364 157.933645 
L 257.475702 145.13797 
L 260.755041 134.089883 
L 264.03438 126.066146 
L 267.313719 122.128126 
L 270.593058 122.994984 
L 273.872397 128.945308 
L 277.151736 139.759143 
L 280.431074 154.708661 
L 283.710413 172.601018 
L 286.989752 191.871608 
L 290.269091 210.720636 
L 293.54843 227.28112 
L 296.827769 239.802622 
L 300.107107 246.832758 
L 303.386446 247.377918 
L 306.665785 241.025979 
L 309.945124 228.016883 
L 313.224463 209.251659 
L 316.503802 186.236236 
L 319.78314 160.962806 
L 323.062479 135.737867 
L 326.341818 112.971723 
L 329.621157 94.948674 
L 332.900496 83.599741 
L 336.179835 80.300399 
L 339.459174 85.714131 
L 342.738512 99.698907 
L 346.017851 121.288111 
L 349.29719 148.750582 
L 352.576529 179.726843 
L 355.855868 211.431074 
L 359.135207 240.901608 
L 362.414545 265.277431 
L 365.693884 282.074887 
L 368.973223 289.437909 
L 372.252562 286.336815 
L 375.531901 272.69482 
L 378.81124 249.427786 
L 382.090579 218.390586 
L 385.369917 182.232262 
L 388.649256 144.170955 
L 391.928595 107.70766 
L 395.207934 76.304212 
L 398.487273 53.055157 
" clip-path="url(#pf03825f5f9)" style="fill: none; stroke: #888888; stroke-opacity: 0.501961; stroke-width: 1.5; stroke-linecap: square"/>
   </g>
   <g id="line2d_17">
    <path d="M 73.832727 228.683196 
L 77.112066 209.229368 
L 80.391405 189.353978 
L 83.670744 170.856821 
L 86.950083 155.302503 
L 90.229421 143.883868 
L 93.50876 137.328744 
L 96.788099 135.857086 
L 100.067438 139.190306 
L 103.346777 146.609243 
L 106.626116 157.05253 
L 109.905455 169.243405 
L 113.184793 181.830657 
L 116.464132 193.528638 
L 119.743471 203.242023 
L 123.02281 210.163279 
L 126.302149 213.834153 
L 129.581488 214.166697 
L 132.860826 211.423787 
L 136.140165 206.163434 
L 139.419504 199.154836 
L 142.698843 191.27685 
L 145.978182 183.410995 
L 149.257521 176.34119 
L 152.53686 170.671175 
L 155.816198 166.76817 
L 159.095537 164.738002 
L 162.374876 164.433211 
L 165.654215 165.491762 
L 168.933554 167.400531 
L 172.212893 169.575018 
L 175.492231 171.444995 
L 178.77157 172.535358 
L 182.050909 172.53216 
L 185.330248 171.325758 
L 188.609587 169.025795 
L 191.888926 165.946218 
L 195.168264 162.562131 
L 198.447603 159.443762 
L 201.726942 157.175611 
L 205.006281 156.270802 
L 208.28562 157.09137 
L 211.564959 159.784775 
L 214.844298 164.24519 
L 218.123636 170.105395 
L 221.402975 176.76165 
L 224.682314 183.430036 
L 227.961653 189.229034 
L 231.240992 193.279787 
L 234.520331 194.813097 
L 237.799669 193.270953 
L 241.079008 188.390479 
L 244.358347 180.259623 
L 247.637686 169.336638 
L 250.917025 156.429057 
L 254.196364 142.632205 
L 257.475702 129.23173 
L 260.755041 117.578843 
L 264.03438 108.950306 
L 267.313719 104.407486 
L 270.593058 104.669544 
L 273.872397 110.015068 
L 277.151736 120.224103 
L 280.431074 134.568821 
L 283.710413 151.856378 
L 286.989752 170.522168 
L 290.269091 188.766396 
L 293.54843 204.72208 
L 296.827769 216.638782 
L 300.107107 223.064118 
L 303.386446 223.004478 
L 306.665785 216.047739 
L 309.945124 202.433843 
L 313.224463 183.063819 
L 316.503802 159.443596 
L 319.78314 133.565366 
L 323.062479 107.735627 
L 326.341818 84.364683 
L 329.621157 65.736834 
L 332.900496 53.783101 
L 336.179835 49.878959 
L 339.459174 54.687891 
L 342.738512 68.067867 
L 346.017851 89.052271 
L 349.29719 115.909942 
L 352.576529 146.281403 
L 355.855868 177.380834 
L 359.135207 206.246568 
L 362.414545 230.017591 
L 365.693884 246.210247 
L 368.973223 252.968469 
L 372.252562 249.262575 
L 375.531901 235.01578 
L 378.81124 211.143946 
L 382.090579 179.501946 
L 385.369917 142.738822 
L 388.649256 104.072715 
L 391.928595 67.00462 
L 395.207934 34.996372 
L 398.487273 11.142517 
" clip-path="url(#pf03825f5f9)" style="fill: none; stroke-dasharray: 5.55,2.4; stroke-dashoffset: 0; stroke: #888888; stroke-opacity: 0.501961; stroke-width: 1.5"/>
   </g>
   <g id="line2d_18">
    <path d="M 73.832727 192.758076 
L 77.112066 174.513848 
L 80.391405 155.848058 
L 83.670744 138.560501 
L 86.950083 124.215783 
L 90.229421 114.006748 
L 93.50876 108.661224 
L 96.788099 108.399166 
L 100.067438 112.941986 
L 103.346777 121.570523 
L 106.626116 133.22341 
L 109.905455 146.623885 
L 113.184793 160.420737 
L 116.464132 173.328318 
L 119.743471 184.251303 
L 123.02281 192.382159 
L 126.302149 197.262633 
L 129.581488 198.804777 
L 132.860826 197.271467 
L 136.140165 193.220714 
L 139.419504 187.421716 
L 142.698843 180.75333 
L 145.978182 174.097075 
L 149.257521 168.23687 
L 152.53686 163.776455 
L 155.816198 161.08305 
L 159.095537 160.262482 
L 162.374876 161.167291 
L 165.654215 163.435442 
L 168.933554 166.553811 
L 172.212893 169.937898 
L 175.492231 173.017475 
L 178.77157 175.317438 
L 182.050909 176.52384 
L 185.330248 176.527038 
L 188.609587 175.436675 
L 191.888926 173.566698 
L 195.168264 171.392211 
L 198.447603 169.483442 
L 201.726942 168.424891 
L 205.006281 168.729682 
L 208.28562 170.75985 
L 211.564959 174.662855 
L 214.844298 180.33287 
L 218.123636 187.402675 
L 221.402975 195.26853 
L 224.682314 203.146516 
L 227.961653 210.155114 
L 231.240992 215.415467 
L 234.520331 218.158377 
L 237.799669 217.825833 
L 241.079008 214.154959 
L 244.358347 207.233703 
L 247.637686 197.520318 
L 250.917025 185.822337 
L 254.196364 173.235085 
L 257.475702 161.04421 
L 260.755041 150.600923 
L 264.03438 143.181986 
L 267.313719 139.848766 
L 270.593058 141.320424 
L 273.872397 147.875548 
L 277.151736 159.294183 
L 280.431074 174.848501 
L 283.710413 193.345658 
L 286.989752 213.221048 
L 290.269091 232.674876 
L 293.54843 249.84016 
L 296.827769 262.966462 
L 300.107107 270.601398 
L 303.386446 271.751358 
L 306.665785 266.004219 
L 309.945124 253.599923 
L 313.224463 235.439499 
L 316.503802 213.028876 
L 319.78314 188.360246 
L 323.062479 163.740107 
L 326.341818 141.578763 
L 329.621157 124.160514 
L 332.900496 113.416381 
L 336.179835 110.721839 
L 339.459174 116.740371 
L 342.738512 131.329947 
L 346.017851 153.523951 
L 349.29719 181.591222 
L 352.576529 213.172283 
L 355.855868 245.481314 
L 359.135207 275.556648 
L 362.414545 300.537271 
L 365.693884 317.939527 
L 368.973223 325.907349 
L 372.252562 323.411055 
L 375.531901 310.37386 
L 378.81124 287.711626 
L 382.090579 257.279226 
L 385.369917 221.725702 
L 388.649256 184.269195 
L 391.928595 148.4107 
L 395.207934 117.612052 
L 398.487273 94.967797 
" clip-path="url(#pf03825f5f9)" style="fill: none; stroke-dasharray: 5.55,2.4; stroke-dashoffset: 0; stroke: #888888; stroke-opacity: 0.501961; stroke-width: 1.5"/>
   </g>
   <g id="patch_3">
    <path d="M 57.6 307.584 
L 57.6 41.472 
" style="fill: none; stroke: #000000; stroke-width: 0.8; stroke-linejoin: miter; stroke-linecap: square"/>
   </g>
   <g id="patch_4">
    <path d="M 414.72 307.584 
L 414.72 41.472 
" style="fill: none; stroke: #000000; stroke-width: 0.8; stroke-linejoin: miter; stroke-linecap: square"/>
   </g>
   <g id="patch_5">
    <path d="M 57.6 307.584 
L 414.72 307.584 
" style="fill: none; stroke: #000000; stroke-width: 0.8; stroke-linejoin: miter; stroke-linecap: square"/>
   </g>
   <g id="patch_6">
    <path d="M 57.6 41.472 
L 414.72 41.472 
" style="fill: none; stroke: #000000; stroke-width: 0.8; stroke-linejoin: miter; stroke-linecap: square"/>
   </g>
   <g id="legend_1">
    <g id="patch_7">
     <path d="M 66 301.584 
L 193.68 301.584 
Q 196.08 301.584 196.08 299.184 
L 196.08 214.05525 
Q 196.08 211.65525 193.68 211.65525 
L 66 211.65525 
Q 63.6 211.65525 63.6 214.05525 
L 63.6 299.184 
Q 63.6 301.584 66 301.584 
z
" style="fill: #ffffff; opacity: 0.8; stroke: #cccccc; stroke-linejoin: miter"/>
    </g>
    <g id="patch_8">
     <path d="M 68.4 225.970875 
L 92.4 225.970875 
L 92.4 217.570875 
L 68.4 217.570875 
z
" style="fill: #8a2be2; fill-opacity: 0.501961"/>
    </g>
    <g id="text_13">
     <!-- $\mathbb{E}[\sigma^2]$ (aleatoric) -->
     <g transform="translate(102 225.970875)scale(0.12 -0.12)">
      <defs>
       <path id="STIXNonUnicode-Italic-e156" d="M 4250 4179 
L 4192 3942 
L 2150 3942 
L 1709 2266 
L 3514 2266 
L 3443 2029 
L 1645 2029 
L 1165 237 
L 3443 237 
L 3392 0 
L 109 0 
L 1229 4179 
L 4250 4179 
z
M 1914 3942 
L 1414 3942 
L 416 237 
L 928 237 
L 1914 3942 
z
" transform="scale(0.015625)"/>
       <path id="STIXGeneral-Regular-5b" d="M 1914 -998 
L 563 -998 
L 563 4237 
L 1914 4237 
L 1914 4077 
L 1382 4077 
Q 1216 4077 1133 4006 
Q 1050 3936 1050 3770 
L 1050 -493 
Q 1050 -838 1382 -838 
L 1914 -838 
L 1914 -998 
z
" transform="scale(0.015625)"/>
       <path id="STIXGeneral-Italic-3c3" d="M 3398 2739 
L 3283 2266 
L 2195 2266 
Q 2291 2112 2457 1981 
Q 2624 1850 2717 1725 
Q 2810 1600 2810 1389 
Q 2810 851 2288 390 
Q 1766 -70 1107 -70 
Q 659 -70 416 170 
Q 173 410 173 832 
Q 173 1274 409 1706 
Q 646 2138 1113 2438 
Q 1581 2739 2157 2739 
L 3398 2739 
z
M 2272 1414 
Q 2272 1709 2166 1939 
Q 2061 2170 1901 2266 
Q 1530 2266 1120 1770 
Q 710 1274 710 640 
Q 710 358 844 211 
Q 979 64 1210 64 
Q 1638 64 1955 525 
Q 2272 986 2272 1414 
z
" transform="scale(0.015625)"/>
       <path id="STIXGeneral-Regular-5d" d="M 1568 -998 
L 218 -998 
L 218 -838 
L 781 -838 
Q 947 -838 1014 -768 
Q 1082 -698 1082 -544 
L 1082 3731 
Q 1082 4077 755 4077 
L 218 4077 
L 218 4237 
L 1568 4237 
L 1568 -998 
z
" transform="scale(0.015625)"/>
       <path id="STIXGeneral-Regular-20" transform="scale(0.015625)"/>
       <path id="STIXGeneral-Regular-28" d="M 1946 -1030 
L 1869 -1133 
Q 1126 -710 716 32 
Q 307 774 307 1613 
Q 307 3386 1888 4326 
L 1946 4224 
Q 1293 3667 1075 3126 
Q 858 2586 858 1632 
Q 858 685 1082 96 
Q 1306 -493 1946 -1030 
z
" transform="scale(0.015625)"/>
       <path id="STIXGeneral-Regular-61" d="M 2829 422 
L 2829 243 
Q 2586 -64 2253 -64 
Q 1888 -64 1843 403 
L 1837 403 
Q 1427 -64 909 -64 
Q 608 -64 422 112 
Q 237 288 237 602 
Q 237 1050 685 1350 
Q 992 1555 1837 1869 
L 1837 2214 
Q 1837 2502 1699 2646 
Q 1562 2790 1338 2790 
Q 1146 2790 1018 2697 
Q 890 2605 890 2477 
Q 890 2419 909 2348 
Q 928 2278 928 2208 
Q 928 2112 841 2029 
Q 755 1946 634 1946 
Q 525 1946 441 2029 
Q 358 2112 358 2240 
Q 358 2547 685 2752 
Q 986 2944 1421 2944 
Q 1939 2944 2176 2656 
Q 2291 2522 2323 2384 
Q 2355 2246 2355 1946 
L 2355 723 
Q 2355 301 2554 301 
Q 2682 301 2829 422 
z
M 1837 813 
L 1837 1715 
Q 1248 1510 1018 1293 
Q 800 1094 800 800 
Q 800 557 921 432 
Q 1043 307 1242 307 
Q 1453 307 1613 410 
Q 1747 506 1792 589 
Q 1837 672 1837 813 
z
" transform="scale(0.015625)"/>
       <path id="STIXGeneral-Regular-6c" d="M 1645 0 
L 134 0 
L 134 96 
Q 435 122 531 221 
Q 627 320 627 589 
L 627 3590 
Q 627 3821 569 3910 
Q 512 4000 358 4000 
Q 224 4000 122 3987 
L 122 4090 
Q 730 4237 1133 4371 
L 1165 4346 
L 1165 557 
Q 1165 288 1254 201 
Q 1344 115 1645 96 
L 1645 0 
z
" transform="scale(0.015625)"/>
       <path id="STIXGeneral-Regular-65" d="M 2611 1050 
L 2714 1005 
Q 2330 -64 1376 -64 
Q 813 -64 486 329 
Q 160 723 160 1389 
Q 160 2074 525 2509 
Q 890 2944 1485 2944 
Q 2061 2944 2374 2502 
Q 2560 2246 2592 1773 
L 621 1773 
Q 646 1370 700 1158 
Q 755 947 915 730 
Q 1184 378 1626 378 
Q 1939 378 2153 531 
Q 2368 685 2611 1050 
z
M 634 1978 
L 1939 1978 
Q 1882 2381 1750 2547 
Q 1619 2714 1312 2714 
Q 1043 2714 864 2525 
Q 685 2336 634 1978 
z
" transform="scale(0.015625)"/>
       <path id="STIXGeneral-Regular-74" d="M 1702 493 
L 1786 422 
Q 1478 -64 1011 -64 
Q 448 -64 448 749 
L 448 2675 
L 109 2675 
Q 83 2694 83 2720 
Q 83 2771 192 2842 
Q 435 2982 813 3526 
Q 826 3546 874 3606 
Q 922 3667 941 3706 
Q 986 3706 986 3622 
L 986 2880 
L 1632 2880 
L 1632 2675 
L 986 2675 
L 986 845 
Q 986 538 1062 403 
Q 1139 269 1318 269 
Q 1510 269 1702 493 
z
" transform="scale(0.015625)"/>
       <path id="STIXGeneral-Regular-6f" d="M 3008 1478 
Q 3008 806 2608 371 
Q 2208 -64 1568 -64 
Q 979 -64 582 368 
Q 186 800 186 1459 
Q 186 2125 582 2534 
Q 979 2944 1626 2944 
Q 2221 2944 2614 2537 
Q 3008 2131 3008 1478 
z
M 2432 1306 
Q 2432 2035 2112 2445 
Q 1856 2765 1504 2765 
Q 1171 2765 966 2493 
Q 762 2221 762 1747 
Q 762 928 1101 435 
Q 1318 115 1677 115 
Q 2029 115 2230 432 
Q 2432 749 2432 1306 
z
" transform="scale(0.015625)"/>
       <path id="STIXGeneral-Regular-72" d="M 1024 2931 
L 1024 2342 
Q 1267 2688 1430 2816 
Q 1594 2944 1792 2944 
Q 1958 2944 2051 2854 
Q 2144 2765 2144 2605 
Q 2144 2470 2077 2393 
Q 2010 2317 1894 2317 
Q 1773 2317 1638 2445 
Q 1536 2541 1472 2541 
Q 1338 2541 1181 2355 
Q 1024 2170 1024 2016 
L 1024 576 
Q 1024 301 1133 205 
Q 1242 109 1568 96 
L 1568 0 
L 32 0 
L 32 96 
Q 339 154 412 224 
Q 486 294 486 538 
L 486 2138 
Q 486 2349 438 2435 
Q 390 2522 269 2522 
Q 166 2522 45 2496 
L 45 2598 
Q 448 2726 992 2944 
L 1024 2931 
z
" transform="scale(0.015625)"/>
       <path id="STIXGeneral-Regular-69" d="M 1152 4045 
Q 1152 3904 1056 3811 
Q 960 3718 819 3718 
Q 685 3718 592 3811 
Q 499 3904 499 4045 
Q 499 4179 595 4275 
Q 691 4371 826 4371 
Q 966 4371 1059 4275 
Q 1152 4179 1152 4045 
z
M 1619 0 
L 102 0 
L 102 96 
Q 435 115 521 211 
Q 608 307 608 666 
L 608 2118 
Q 608 2342 563 2432 
Q 518 2522 397 2522 
Q 243 2522 128 2490 
L 128 2592 
L 1120 2944 
L 1146 2918 
L 1146 672 
Q 1146 314 1226 218 
Q 1306 122 1619 96 
L 1619 0 
z
" transform="scale(0.015625)"/>
       <path id="STIXGeneral-Regular-63" d="M 2547 998 
L 2637 941 
Q 2362 403 2112 205 
Q 1786 -64 1376 -64 
Q 845 -64 502 336 
Q 160 736 160 1357 
Q 160 2170 698 2618 
Q 1094 2944 1562 2944 
Q 1965 2944 2256 2749 
Q 2547 2554 2547 2285 
Q 2547 2176 2457 2096 
Q 2368 2016 2246 2016 
Q 2022 2016 1939 2310 
L 1901 2451 
Q 1850 2630 1773 2694 
Q 1696 2758 1523 2758 
Q 1133 2758 893 2451 
Q 653 2144 653 1645 
Q 653 1094 928 745 
Q 1203 397 1645 397 
Q 1920 397 2118 528 
Q 2317 659 2547 998 
z
" transform="scale(0.015625)"/>
       <path id="STIXGeneral-Regular-29" d="M 186 4224 
L 262 4326 
Q 992 3891 1408 3148 
Q 1824 2406 1824 1581 
Q 1824 -166 243 -1133 
L 186 -1030 
Q 845 -486 1059 54 
Q 1274 595 1274 1562 
Q 1274 2534 1059 3120 
Q 845 3706 186 4224 
z
" transform="scale(0.015625)"/>
      </defs>
      <use xlink:href="#STIXNonUnicode-Italic-e156" transform="translate(0 0.409375)"/>
      <use xlink:href="#STIXGeneral-Regular-5b" transform="translate(63.899994 0.409375)"/>
      <use xlink:href="#STIXGeneral-Italic-3c3" transform="translate(97.199982 0.409375)"/>
      <use xlink:href="#STIXGeneral-Regular-32" transform="translate(152.900751 35.684375)scale(0.7)"/>
      <use xlink:href="#STIXGeneral-Regular-5d" transform="translate(192.310115 0.409375)"/>
      <use xlink:href="#STIXGeneral-Regular-20" transform="translate(225.610103 0.409375)"/>
      <use xlink:href="#STIXGeneral-Regular-28" transform="translate(250.610088 0.409375)"/>
      <use xlink:href="#STIXGeneral-Regular-61" transform="translate(283.910075 0.409375)"/>
      <use xlink:href="#STIXGeneral-Regular-6c" transform="translate(328.310069 0.409375)"/>
      <use xlink:href="#STIXGeneral-Regular-65" transform="translate(356.110057 0.409375)"/>
      <use xlink:href="#STIXGeneral-Regular-61" transform="translate(400.510051 0.409375)"/>
      <use xlink:href="#STIXGeneral-Regular-74" transform="translate(444.910045 0.409375)"/>
      <use xlink:href="#STIXGeneral-Regular-6f" transform="translate(472.710033 0.409375)"/>
      <use xlink:href="#STIXGeneral-Regular-72" transform="translate(522.710017 0.409375)"/>
      <use xlink:href="#STIXGeneral-Regular-69" transform="translate(556.010005 0.409375)"/>
      <use xlink:href="#STIXGeneral-Regular-63" transform="translate(583.809993 0.409375)"/>
      <use xlink:href="#STIXGeneral-Regular-29" transform="translate(628.209987 0.409375)"/>
     </g>
    </g>
    <g id="patch_9">
     <path d="M 68.4 242.97525 
L 92.4 242.97525 
L 92.4 234.57525 
L 68.4 234.57525 
z
" style="fill: #3cb371; fill-opacity: 0.501961"/>
    </g>
    <g id="text_14">
     <!-- $\mathrm{Var}[\mu]$ (epistemic) -->
     <g transform="translate(102 242.97525)scale(0.12 -0.12)">
      <defs>
       <path id="STIXGeneral-Regular-56" d="M 4461 4237 
L 4461 4115 
Q 4262 4109 4134 3990 
Q 4006 3872 3872 3533 
L 2451 -70 
L 2355 -70 
L 794 3411 
Q 589 3866 467 3987 
Q 346 4109 102 4115 
L 102 4237 
L 1798 4237 
L 1798 4115 
L 1619 4102 
Q 1331 4083 1331 3904 
Q 1331 3776 1581 3219 
L 2554 1030 
L 3494 3392 
Q 3616 3699 3616 3853 
Q 3616 3898 3606 3933 
Q 3597 3968 3584 3993 
Q 3571 4019 3536 4038 
Q 3501 4058 3481 4067 
Q 3462 4077 3411 4086 
Q 3360 4096 3337 4099 
Q 3315 4102 3248 4108 
Q 3181 4115 3155 4115 
L 3155 4237 
L 4461 4237 
z
" transform="scale(0.015625)"/>
       <path id="STIXGeneral-Italic-3bc" d="M 3002 749 
L 3091 691 
Q 2797 237 2614 83 
Q 2432 -70 2214 -70 
Q 2080 -70 1990 6 
Q 1901 83 1901 218 
Q 1901 416 1997 704 
L 2208 1370 
L 2202 1370 
Q 1766 595 1475 268 
Q 1184 -58 902 -58 
Q 723 -58 672 122 
Q 614 -109 547 -374 
Q 480 -640 451 -758 
Q 422 -877 384 -1005 
Q 346 -1133 314 -1197 
Q 282 -1261 243 -1312 
L -211 -1312 
Q -58 -1088 70 -595 
L 909 2739 
L 1389 2739 
L 909 832 
Q 883 717 883 659 
Q 883 352 1139 352 
Q 1395 352 1811 969 
Q 2227 1587 2323 1958 
L 2534 2739 
L 3027 2739 
L 2522 819 
Q 2400 333 2400 326 
Q 2400 230 2470 230 
Q 2547 230 2652 329 
Q 2758 429 3002 749 
z
" transform="scale(0.015625)"/>
       <path id="STIXGeneral-Regular-70" d="M 1018 2931 
L 1018 2438 
Q 1421 2944 1939 2944 
Q 2406 2944 2707 2560 
Q 3008 2176 3008 1581 
Q 3008 883 2621 409 
Q 2234 -64 1664 -64 
Q 1466 -64 1328 -6 
Q 1190 51 1018 211 
L 1018 -794 
Q 1018 -1094 1120 -1180 
Q 1222 -1267 1581 -1274 
L 1581 -1389 
L 32 -1389 
L 32 -1280 
Q 314 -1254 397 -1171 
Q 480 -1088 480 -838 
L 480 2157 
Q 480 2381 429 2451 
Q 378 2522 218 2522 
Q 115 2522 58 2515 
L 58 2618 
Q 506 2752 979 2944 
L 1018 2931 
z
M 1018 2138 
L 1018 563 
Q 1018 422 1238 281 
Q 1459 141 1683 141 
Q 2029 141 2243 467 
Q 2458 794 2458 1325 
Q 2458 1888 2243 2224 
Q 2029 2560 1670 2560 
Q 1446 2560 1232 2419 
Q 1018 2278 1018 2138 
z
" transform="scale(0.015625)"/>
       <path id="STIXGeneral-Regular-73" d="M 998 1926 
L 1664 1523 
Q 1984 1331 2105 1164 
Q 2227 998 2227 736 
Q 2227 416 1961 176 
Q 1696 -64 1331 -64 
Q 1030 -64 864 -6 
Q 691 51 570 51 
Q 461 51 416 -26 
L 333 -26 
L 333 979 
L 435 979 
Q 538 512 730 294 
Q 922 77 1248 77 
Q 1485 77 1632 211 
Q 1779 346 1779 550 
Q 1779 845 1440 1030 
L 1094 1222 
Q 326 1651 326 2150 
Q 326 2522 566 2730 
Q 806 2938 1210 2938 
Q 1491 2938 1638 2867 
Q 1754 2816 1818 2816 
Q 1862 2816 1920 2880 
L 1990 2880 
L 2022 2010 
L 1926 2010 
Q 1818 2445 1654 2621 
Q 1491 2797 1203 2797 
Q 986 2797 854 2688 
Q 723 2579 723 2362 
Q 723 2253 796 2128 
Q 870 2003 998 1926 
z
" transform="scale(0.015625)"/>
       <path id="STIXGeneral-Regular-6d" d="M 4960 0 
L 3565 0 
L 3565 96 
Q 3834 122 3907 208 
Q 3981 294 3981 576 
L 3981 1894 
Q 3981 2278 3869 2444 
Q 3757 2611 3488 2611 
Q 3264 2611 3107 2521 
Q 2950 2432 2803 2221 
L 2803 608 
Q 2803 301 2896 201 
Q 2989 102 3264 96 
L 3264 0 
L 1830 0 
L 1830 96 
Q 2112 115 2189 188 
Q 2266 262 2266 550 
L 2266 1901 
Q 2266 2611 1850 2611 
Q 1670 2611 1468 2531 
Q 1267 2451 1171 2336 
Q 1088 2240 1088 2227 
L 1088 448 
Q 1088 243 1177 176 
Q 1267 109 1523 96 
L 1523 0 
L 102 0 
L 102 96 
Q 371 102 460 195 
Q 550 288 550 563 
L 550 2150 
Q 550 2387 499 2480 
Q 448 2573 326 2573 
Q 230 2573 122 2547 
L 122 2656 
Q 557 2778 1011 2944 
L 1062 2925 
L 1062 2451 
L 1075 2451 
Q 1363 2752 1584 2848 
Q 1805 2944 2054 2944 
Q 2560 2944 2733 2406 
Q 3232 2944 3776 2944 
Q 4518 2944 4518 1792 
L 4518 493 
Q 4518 282 4582 202 
Q 4646 122 4794 109 
L 4960 96 
L 4960 0 
z
" transform="scale(0.015625)"/>
      </defs>
      <use xlink:href="#STIXGeneral-Regular-56" transform="translate(0 0.703125)"/>
      <use xlink:href="#STIXGeneral-Regular-61" transform="translate(72.199982 0.703125)"/>
      <use xlink:href="#STIXGeneral-Regular-72" transform="translate(116.599976 0.703125)"/>
      <use xlink:href="#STIXGeneral-Regular-5b" transform="translate(149.899963 0.703125)"/>
      <use xlink:href="#STIXGeneral-Italic-3bc" transform="translate(183.199951 0.703125)"/>
      <use xlink:href="#STIXGeneral-Regular-5d" transform="translate(235.799942 0.703125)"/>
      <use xlink:href="#STIXGeneral-Regular-20" transform="translate(269.09993 0.703125)"/>
      <use xlink:href="#STIXGeneral-Regular-28" transform="translate(294.099915 0.703125)"/>
      <use xlink:href="#STIXGeneral-Regular-65" transform="translate(327.399902 0.703125)"/>
      <use xlink:href="#STIXGeneral-Regular-70" transform="translate(371.799896 0.703125)"/>
      <use xlink:href="#STIXGeneral-Regular-69" transform="translate(421.799881 0.703125)"/>
      <use xlink:href="#STIXGeneral-Regular-73" transform="translate(449.599869 0.703125)"/>
      <use xlink:href="#STIXGeneral-Regular-74" transform="translate(488.499863 0.703125)"/>
      <use xlink:href="#STIXGeneral-Regular-65" transform="translate(516.29985 0.703125)"/>
      <use xlink:href="#STIXGeneral-Regular-6d" transform="translate(560.699844 0.703125)"/>
      <use xlink:href="#STIXGeneral-Regular-69" transform="translate(638.499832 0.703125)"/>
      <use xlink:href="#STIXGeneral-Regular-63" transform="translate(666.29982 0.703125)"/>
      <use xlink:href="#STIXGeneral-Regular-29" transform="translate(710.699814 0.703125)"/>
     </g>
    </g>
    <g id="line2d_19">
     <path d="M 68.4 255.970875 
L 80.4 255.970875 
L 92.4 255.970875 
" style="fill: none; stroke: #000000; stroke-width: 1.5; stroke-linecap: square"/>
    </g>
    <g id="text_15">
     <!-- $\hat \mu$ -->
     <g transform="translate(102 260.170875)scale(0.12 -0.12)">
      <defs>
       <path id="STIXGeneral-Regular-302" d="M -480 3245 
L -698 3245 
L -1478 3904 
L -2253 3245 
L -2470 3245 
L -1677 4314 
L -1280 4314 
L -480 3245 
z
" transform="scale(0.015625)"/>
      </defs>
      <use xlink:href="#STIXGeneral-Regular-302" transform="translate(55.492188 4.59375)"/>
      <use xlink:href="#STIXGeneral-Italic-3bc"/>
     </g>
    </g>
    <g id="line2d_20">
     <path d="M 68.4 272.97525 
L 80.4 272.97525 
L 92.4 272.97525 
" style="fill: none; stroke: #888888; stroke-opacity: 0.501961; stroke-width: 1.5; stroke-linecap: square"/>
    </g>
    <g id="text_16">
     <!-- true mean -->
     <g transform="translate(102 277.17525)scale(0.12 -0.12)">
      <defs>
       <path id="STIXGeneral-Regular-75" d="M 3072 320 
L 3072 230 
Q 2573 96 2195 -58 
L 2163 -38 
L 2163 486 
L 2150 486 
Q 1747 -64 1235 -64 
Q 870 -64 662 160 
Q 454 384 454 755 
L 454 2362 
Q 454 2598 371 2688 
Q 288 2778 58 2790 
L 58 2880 
L 992 2880 
L 992 813 
Q 992 595 1123 451 
Q 1254 307 1446 307 
Q 1760 307 1984 506 
Q 2067 582 2099 649 
Q 2131 717 2131 877 
L 2131 2355 
Q 2131 2605 2041 2678 
Q 1952 2752 1658 2771 
L 1658 2880 
L 2669 2880 
L 2669 685 
Q 2669 461 2742 390 
Q 2816 320 3034 320 
L 3072 320 
z
" transform="scale(0.015625)"/>
       <path id="STIXGeneral-Regular-6e" d="M 3104 0 
L 1773 0 
L 1779 96 
Q 2016 115 2096 233 
Q 2176 352 2176 672 
L 2176 1946 
Q 2176 2592 1709 2592 
Q 1549 2592 1408 2515 
Q 1267 2438 1050 2227 
L 1050 461 
Q 1050 269 1136 192 
Q 1222 115 1466 96 
L 1466 0 
L 115 0 
L 115 96 
Q 358 115 435 214 
Q 512 314 512 602 
L 512 2157 
Q 512 2394 467 2483 
Q 422 2573 288 2573 
Q 160 2573 102 2547 
L 102 2656 
Q 550 2784 979 2944 
L 1030 2925 
L 1030 2426 
L 1037 2426 
Q 1491 2944 1958 2944 
Q 2323 2944 2518 2688 
Q 2714 2432 2714 1958 
L 2714 544 
Q 2714 288 2790 205 
Q 2867 122 3104 96 
L 3104 0 
z
" transform="scale(0.015625)"/>
      </defs>
      <use xlink:href="#STIXGeneral-Regular-74"/>
      <use xlink:href="#STIXGeneral-Regular-72" x="27.799988"/>
      <use xlink:href="#STIXGeneral-Regular-75" x="61.099976"/>
      <use xlink:href="#STIXGeneral-Regular-65" x="111.09996"/>
      <use xlink:href="#STIXGeneral-Regular-20" x="155.499954"/>
      <use xlink:href="#STIXGeneral-Regular-6d" x="180.499939"/>
      <use xlink:href="#STIXGeneral-Regular-65" x="258.299927"/>
      <use xlink:href="#STIXGeneral-Regular-61" x="302.699921"/>
      <use xlink:href="#STIXGeneral-Regular-6e" x="347.099915"/>
     </g>
    </g>
    <g id="line2d_21">
     <path d="M 68.4 289.979625 
L 80.4 289.979625 
L 92.4 289.979625 
" style="fill: none; stroke-dasharray: 5.55,2.4; stroke-dashoffset: 0; stroke: #888888; stroke-opacity: 0.501961; stroke-width: 1.5"/>
    </g>
    <g id="text_17">
     <!-- true variance -->
     <g transform="translate(102 294.179625)scale(0.12 -0.12)">
      <defs>
       <path id="STIXGeneral-Regular-76" d="M 3053 2880 
L 3053 2784 
Q 2906 2771 2835 2688 
Q 2765 2605 2637 2285 
L 1818 230 
Q 1690 -90 1638 -90 
Q 1587 -90 1523 77 
Q 1510 96 1497 141 
Q 1485 186 1472 211 
L 704 2048 
Q 499 2534 403 2652 
Q 307 2771 122 2784 
L 122 2880 
L 1376 2880 
L 1376 2784 
Q 1210 2771 1146 2732 
Q 1082 2694 1082 2611 
Q 1082 2509 1139 2368 
L 1792 730 
L 2426 2387 
Q 2464 2483 2464 2579 
Q 2464 2758 2163 2784 
L 2163 2880 
L 3053 2880 
z
" transform="scale(0.015625)"/>
      </defs>
      <use xlink:href="#STIXGeneral-Regular-74"/>
      <use xlink:href="#STIXGeneral-Regular-72" x="27.799988"/>
      <use xlink:href="#STIXGeneral-Regular-75" x="61.099976"/>
      <use xlink:href="#STIXGeneral-Regular-65" x="111.09996"/>
      <use xlink:href="#STIXGeneral-Regular-20" x="155.499954"/>
      <use xlink:href="#STIXGeneral-Regular-76" x="180.499939"/>
      <use xlink:href="#STIXGeneral-Regular-61" x="230.499924"/>
      <use xlink:href="#STIXGeneral-Regular-72" x="274.899918"/>
      <use xlink:href="#STIXGeneral-Regular-69" x="308.199905"/>
      <use xlink:href="#STIXGeneral-Regular-61" x="335.999893"/>
      <use xlink:href="#STIXGeneral-Regular-6e" x="380.399887"/>
      <use xlink:href="#STIXGeneral-Regular-63" x="430.399872"/>
      <use xlink:href="#STIXGeneral-Regular-65" x="474.799866"/>
     </g>
    </g>
   </g>
  </g>
 </g>
 <defs>
  <clipPath id="pf03825f5f9">
   <rect x="57.6" y="41.472" width="357.12" height="266.112"/>
  </clipPath>
 </defs>
</svg>
